<?xml version="1.0" standalone="no"?>
<!DOCTYPE svg PUBLIC "-//W3C//DTD SVG 1.1//EN" "http://www.w3.org/Graphics/SVG/1.1/DTD/svg11.dtd" >
<svg xmlns="http://www.w3.org/2000/svg" xmlns:xlink="http://www.w3.org/1999/xlink" version="1.1">
<metadata>
Created by FontForge 20230101 at Thu Feb 12 22:25:18 2015
 By Unknown
Copyright (c) 2012 by TypeTogether. All rights reserved.
</metadata>
<defs>
<font id="TabletGothicCompressedW02-Bd" horiz-adv-x="415" >
  <font-face 
    font-family="TabletGothicCompressedW02-Bd"
    font-weight="700"
    font-stretch="extra-condensed"
    units-per-em="1000"
    panose-1="2 0 5 3 0 0 0 2 0 4"
    ascent="800"
    descent="-200"
    x-height="523"
    cap-height="734"
    bbox="-101 -254 738 942"
    underline-thickness="50"
    underline-position="-125"
    unicode-range="U+0020-FB02"
  />
<missing-glyph horiz-adv-x="126" 
 />
    <glyph glyph-name=".notdef" horiz-adv-x="126" 
 />
    <glyph glyph-name=".null" horiz-adv-x="0" 
 />
    <glyph glyph-name="nonmarkingreturn" horiz-adv-x="333" 
 />
    <glyph glyph-name="space" unicode=" " horiz-adv-x="126" 
 />
    <glyph glyph-name="exclam" unicode="!" horiz-adv-x="242" 
d="M80 201l-25 533h133l-22 -533h-86zM74 145h99v-145h-99v145z" />
    <glyph glyph-name="quotedbl" unicode="&#x22;" horiz-adv-x="286" 
d="M246 734l-9 -200h-72l-9 200h90zM130 734l-9 -200h-72l-9 200h90z" />
    <glyph glyph-name="numbersign" unicode="#" horiz-adv-x="497" 
d="M248 0l18 131h-81l-17 -131h-85l18 131h-78l12 89h78l18 128h-82l12 89h81l16 118h83l-16 -118h81l16 118h84l-15 -118h78l-12 -89h-78l-18 -128h85l-12 -89h-84l-18 -131h-84zM295 348h-81l-17 -128h80z" />
    <glyph glyph-name="dollar" unicode="$" horiz-adv-x="405" 
d="M262 490q2 69 -9.5 101.5t-49.5 32.5q-33 0 -47.5 -20.5t-14.5 -50.5q0 -43 20 -67t58 -49q27 -18 56.5 -37t54.5 -44.5t41 -60.5t16 -85q0 -86 -37.5 -134t-96.5 -62v-79h-99v78q-73 13 -104.5 69t-27.5 156l114 9q0 -42 5 -69.5t14 -43.5t22.5 -22.5t30.5 -6.5
q30 0 46.5 21t16.5 59q0 26 -8 46t-21 36t-30.5 28.5t-36.5 24.5q-26 17 -53 35t-49 42.5t-36 58t-14 81.5q0 78 37 123.5t94 59.5v79h99v-76q66 -13 94.5 -67.5t21.5 -157.5z" />
    <glyph glyph-name="percent" unicode="%" horiz-adv-x="608" 
d="M126 12l287 739l77 -26l-287 -742zM463 -13q-67 0 -91.5 51t-24.5 154q0 203 127 203q33 0 55 -12.5t34.5 -37t17.5 -61t5 -85.5q0 -108 -28.5 -160t-94.5 -52zM465 60q12 0 19 7t10.5 22.5t5 41t1.5 62.5q0 39 -1 64.5t-4.5 40.5t-10 21t-16.5 6t-16.5 -6t-11 -21
t-6.5 -40t-2 -63t1 -63.5t4 -41.5t9.5 -23t17.5 -7zM109 534q0 -75 5 -105t27 -30q12 0 19 7t11 22.5t5 41t1 62.5q0 39 -1 64.5t-4.5 40.5t-10 21t-16.5 6t-16.5 -6t-11 -21t-6.5 -40t-2 -63zM139 326q-66 0 -91 51t-25 154q0 203 127 203q33 0 55 -12.5t34.5 -37t17.5 -61
t5 -85.5q0 -108 -28 -160t-95 -52z" />
    <glyph glyph-name="ampersand" unicode="&#x26;" horiz-adv-x="556" 
d="M203 309q-25 -24 -41 -55t-16 -68q0 -48 24.5 -74t62.5 -26q52 0 93 47zM283 534q3 10 4.5 22.5t2.5 23.5q0 32 -12 49.5t-37 17.5q-26 0 -39 -17t-13 -44q0 -52 55 -131l141 -212q7 20 12.5 45t8.5 50.5t4 50t0 43.5l102 -15q2 -72 -11.5 -145.5t-47.5 -134.5l78 -112
l-90 -60l-61 86q-29 -29 -68.5 -46t-90.5 -17q-90 0 -141.5 51t-51.5 143q0 63 31 116.5t87 96.5q-29 42 -49 87.5t-20 94.5q0 40 12.5 71.5t35 53.5t54 33.5t68.5 11.5q70 0 111 -37.5t40 -115.5q-1 -18 -3.5 -37.5t-7.5 -39.5z" />
    <glyph glyph-name="quotesingle" unicode="'" horiz-adv-x="170" 
d="M130 734l-9 -200h-72l-9 200h90z" />
    <glyph glyph-name="parenleft" unicode="(" horiz-adv-x="295" 
d="M269 771q-45 -100 -68.5 -211t-23.5 -223q0 -121 26 -235.5t65 -217.5l-74 -33q-82 113 -117 233.5t-35 246.5q0 52 8 110t26 118t47 120.5t71 117.5z" />
    <glyph glyph-name="parenright" unicode=")" horiz-adv-x="295" 
d="M26 -122q20 42 37 92.5t29 105.5t19 113t7 115q0 118 -25 236.5t-66 223.5l75 34q85 -121 118 -241.5t33 -244.5q0 -52 -8 -109t-26.5 -116t-47.5 -118t-71 -116z" />
    <glyph glyph-name="asterisk" unicode="*" horiz-adv-x="382" 
d="M237 734l-27 -128l114 65l28 -89l-133 -14l99 -86l-75 -55l-53 118l-54 -117l-74 55l97 86l-129 15l28 89l114 -68l-26 129h91z" />
    <glyph glyph-name="plus" unicode="+" 
d="M253 282v-99h-90v99h-101v91h101v99h90v-99h99v-91h-99z" />
    <glyph glyph-name="comma" unicode="," horiz-adv-x="175" 
d="M39 145h104v-123l-55 -146l-46 13l31 111h-34v145z" />
    <glyph glyph-name="hyphen" unicode="-" horiz-adv-x="252" 
d="M28 269v88h196v-88h-196z" />
    <glyph glyph-name="period" unicode="." horiz-adv-x="186" 
d="M44 145h100v-145h-100v145z" />
    <glyph glyph-name="slash" unicode="/" horiz-adv-x="332" 
d="M225 763l103 -24l-238 -853l-104 25z" />
    <glyph glyph-name="zero" unicode="0" horiz-adv-x="405" 
d="M198 -12q-54 0 -87 23.5t-50.5 70.5t-23.5 118t-6 167t8.5 167t29.5 118.5t55.5 71t86.5 23.5q54 0 86 -24t49 -70t22 -114.5t5 -156.5q0 -100 -7 -174t-26.5 -123t-53.5 -73t-88 -24zM203 93q21 0 32.5 13.5t17 46t6.5 86t1 134.5q0 79 -1.5 131.5t-6.5 83.5t-16 43.5
t-30 12.5q-20 0 -32 -14.5t-19 -46.5t-9 -85t-2 -129q0 -80 1.5 -133.5t7.5 -85t18 -44.5t32 -13z" />
    <glyph glyph-name="one" unicode="1" horiz-adv-x="293" 
d="M12 647q32 14 75 36t80 51h68v-734h-110v600q-15 -11 -38 -24t-54 -27z" />
    <glyph glyph-name="two" unicode="2" horiz-adv-x="345" 
d="M308 105v-105h-271q-1 17 -1.5 33t-0.5 31q0 58 13.5 105.5t34 88.5t44 77.5t44 74.5t34 78.5t13.5 88.5q0 22 -3.5 35.5t-10 21.5t-15 11t-18.5 3q-33 0 -40 -36t1 -108l-103 -7q-8 50 -5 95.5t20.5 80t51 54.5t86.5 20q71 0 108 -42t37 -127q0 -55 -13 -100.5
t-32.5 -84t-42 -73t-42 -69t-32.5 -70t-12 -76.5h155z" />
    <glyph glyph-name="three" unicode="3" horiz-adv-x="361" 
d="M113 430q33 1 54 9t32.5 23.5t16 40t4.5 60.5q0 49 -13 66t-30 17q-29 0 -40.5 -29t-5.5 -105l-99 -4q-5 45 -1.5 88t20 76.5t48.5 54t85 20.5q72 0 110 -45.5t38 -135.5q0 -40 -9.5 -70t-25 -51.5t-35 -35.5t-40.5 -21q35 -9 57.5 -26.5t36 -42t19 -54.5t5.5 -63
q0 -110 -39 -162t-122 -52q-50 0 -81 17.5t-48.5 48.5t-24.5 74t-7 95l106 5q2 -75 13 -104.5t39 -29.5q26 0 38 24t12 88q0 40 -7 64.5t-21 38t-34 18t-46 4.5z" />
    <glyph glyph-name="four" unicode="4" horiz-adv-x="405" 
d="M224 255v338h-4l-107 -338h111zM325 255h65v-103h-65v-152h-101v152h-211v70l172 513h140v-480z" />
    <glyph glyph-name="five" unicode="5" horiz-adv-x="377" 
d="M183 384q-18 0 -32 -15t-23 -49l-90 7l20 407h270v-104h-181l-20 -207q14 23 40.5 41.5t59.5 18.5q24 0 46 -9t39.5 -35t27.5 -72t10 -119t-11.5 -122.5t-33 -80t-52 -44t-69.5 -13.5t-70.5 13t-53 41t-32 72.5t-8.5 106.5l109 6q0 -71 11.5 -101.5t41.5 -30.5
q29 0 42 34t13 116q0 46 -4 74t-11.5 42t-17 18.5t-21.5 4.5z" />
    <glyph glyph-name="six" unicode="6" horiz-adv-x="380" 
d="M203 643q-18 0 -31 -12.5t-22 -43t-14 -80.5t-6 -125q13 26 41.5 46t64.5 20q28 0 51.5 -11t40 -37t25.5 -68t9 -104q0 -63 -12.5 -108t-35 -74.5t-53 -43.5t-66.5 -14q-51 0 -84 20.5t-53 63t-28 107t-8 153.5q0 104 10 182t33 129.5t60.5 77.5t91.5 26
q70 0 106.5 -53.5t26.5 -167.5l-106 -4q4 66 -4 93.5t-37 27.5zM193 356q-12 0 -22 -6t-18 -20.5t-12.5 -39t-4.5 -60.5q0 -70 13 -105.5t45 -35.5t43.5 32.5t11.5 108.5q0 71 -13.5 98.5t-42.5 27.5z" />
    <glyph glyph-name="seven" unicode="7" horiz-adv-x="309" 
d="M47 0q1 108 15 196.5t36 164.5t50.5 141.5t60.5 127.5h-206v104h306v-86q-63 -124 -92 -253.5t-30 -272.5q0 -31 1 -61.5t3 -60.5h-144z" />
    <glyph glyph-name="eight" unicode="8" horiz-adv-x="400" 
d="M198 -12q-48 0 -81.5 16t-55.5 43.5t-32 65t-10 80.5q0 79 26.5 130.5t85.5 76.5q-26 9 -44.5 25t-30 37t-16.5 45.5t-5 49.5q0 86 43.5 138t124.5 52q86 0 123 -49.5t37 -135.5q0 -27 -5.5 -52.5t-17.5 -47t-30 -37t-43 -22.5q60 -17 87.5 -68.5t27.5 -128.5
q0 -48 -10.5 -88.5t-33 -69t-57.5 -44.5t-83 -16zM202 91q36 0 51 31t15 88q0 69 -13.5 102t-50.5 33q-40 0 -55.5 -33.5t-15.5 -99.5q0 -63 14.5 -92t54.5 -29zM201 453q30 0 40 26t10 83q0 48 -11 72.5t-40 24.5t-40.5 -25t-11.5 -72q0 -56 10.5 -82.5t42.5 -26.5z" />
    <glyph glyph-name="nine" unicode="9" horiz-adv-x="381" 
d="M183 92q18 0 30.5 13t20.5 43t12.5 80t6.5 125q-13 -25 -41.5 -45t-64.5 -20q-28 0 -51.5 11t-40 37t-25.5 68t-9 104q0 63 12.5 108t35 74t52.5 43t66 14q51 0 84.5 -20.5t53.5 -63t28 -107t8 -152.5q0 -104 -9 -182t-30.5 -130t-57 -78t-89.5 -26q-72 0 -112 53.5
t-32 166.5l106 6q-2 -64 7.5 -93t38.5 -29zM188 379q25 0 42 27t17 99q0 71 -13 106t-45 35t-43.5 -32.5t-11.5 -108.5q0 -70 13 -98t41 -28z" />
    <glyph glyph-name="colon" unicode=":" horiz-adv-x="186" 
d="M44 145h100v-145h-100v145zM44 522h100v-145h-100v145z" />
    <glyph glyph-name="semicolon" unicode=";" horiz-adv-x="175" 
d="M41 145h104v-123l-55 -146l-46 13l31 111h-34v145zM44 522h100v-145h-100v145z" />
    <glyph glyph-name="less" unicode="&#x3c;" 
d="M62 219v129l290 107v-106l-195 -63l195 -57v-104z" />
    <glyph glyph-name="equal" unicode="=" 
d="M62 186v90h290v-90h-290zM62 334v90h290v-90h-290z" />
    <glyph glyph-name="greater" unicode="&#x3e;" 
d="M352 361v-129l-290 -107v105l196 64l-196 56v105z" />
    <glyph glyph-name="question" unicode="?" horiz-adv-x="408" 
d="M252 524q0 37 -4 60.5t-11 37t-17 18t-22 4.5q-13 0 -23.5 -5t-18 -18t-11.5 -36.5t-4 -60.5l-119 9q0 41 7 79.5t26.5 68.5t54.5 48t91 18q95 0 136.5 -56.5t41.5 -161.5q0 -60 -11.5 -100.5t-33 -67t-51.5 -41.5t-67 -23l-9 -92h-97l-7 163q46 2 75 12t45.5 28.5
t22.5 47.5t6 68zM108 145h100v-145h-100v145z" />
    <glyph glyph-name="at" unicode="@" horiz-adv-x="685" 
d="M533 -83q-14 -17 -35.5 -32t-48 -25.5t-55.5 -16.5t-58 -6q-58 0 -111.5 19.5t-95 60.5t-66 106t-24.5 156q0 90 22 161.5t63.5 121.5t100 77t130.5 27q67 0 120.5 -19.5t91.5 -58.5t58.5 -98.5t20.5 -139.5q0 -70 -11.5 -118.5t-31.5 -79t-47.5 -44.5t-59.5 -14
q-40 0 -66 18.5t-36 42.5q-17 -33 -42 -48t-54 -15q-35 0 -56.5 15.5t-33.5 40t-16 54t-4 58.5q0 37 7.5 78.5t25 77t46 58.5t70.5 23q29 0 46 -14t25 -26l7 34h72l-28 -233q-3 -20 -3.5 -38t3 -31.5t13 -21.5t26.5 -8q33 0 51 42.5t18 133.5q0 76 -15.5 126.5t-44 80.5
t-68 42.5t-87.5 12.5q-58 0 -101.5 -23.5t-73 -65.5t-44.5 -100t-15 -128q0 -129 57.5 -202t168.5 -73q51 0 88.5 18.5t57.5 42.5zM398 266q4 31 -9 50.5t-40 19.5q-21 0 -35.5 -13.5t-24.5 -36.5t-15 -53t-6 -64q-1 -20 -0.5 -40t5.5 -36t16 -26.5t31 -10.5q15 0 26 8
t19 21.5t13 30.5t7 36z" />
    <glyph glyph-name="A" unicode="A" horiz-adv-x="426" 
d="M286 734l134 -734h-121l-28 179h-122l-27 -179h-116l128 734h152zM213 604h-5l-48 -323h98z" />
    <glyph glyph-name="B" unicode="B" horiz-adv-x="413" 
d="M37 0v734h130q107 0 157 -45t50 -131q0 -41 -10.5 -70.5t-28 -50.5t-40 -33t-46.5 -16v-3q72 -11 109 -52.5t37 -126.5q0 -57 -15 -96.5t-45 -63.5t-74.5 -35t-102.5 -11h-121zM161 98q31 0 53.5 5.5t36.5 19t20.5 35.5t6.5 54q0 59 -28 84.5t-80 25.5h-21v-224h12z
M156 425q48 0 77.5 27.5t29.5 87.5q0 30 -6.5 48.5t-18.5 29t-29 14.5t-38 4h-22v-211h7z" />
    <glyph glyph-name="C" unicode="C" horiz-adv-x="409" 
d="M214 82q19 0 30.5 12t17.5 34.5t8 54.5t2 73l107 -7q0 -72 -9 -121.5t-30 -80.5t-54 -45t-80 -14q-57 0 -92 23.5t-54 70t-25.5 117t-6.5 165.5q0 94 10 166t33 120t61.5 72.5t94.5 24.5q48 0 79 -17t49 -50.5t24.5 -84t5.5 -116.5l-107 -9q0 50 -2 84t-8.5 54.5
t-18 29.5t-29.5 9q-23 0 -37 -15.5t-22.5 -49.5t-11.5 -87t-3 -129q0 -80 1.5 -134t8.5 -87.5t20.5 -48t37.5 -14.5z" />
    <glyph glyph-name="D" unicode="D" horiz-adv-x="421" 
d="M37 0v734h116q75 0 122 -21t73.5 -64.5t36 -110.5t9.5 -160q0 -100 -9.5 -171.5t-36.5 -117.5t-75.5 -67.5t-125.5 -21.5h-110zM166 98q37 0 58.5 13t33 44.5t15 84.5t3.5 133q0 76 -4 126.5t-15.5 81t-33 43.5t-56.5 13h-18v-539h17z" />
    <glyph glyph-name="E" unicode="E" horiz-adv-x="362" 
d="M312 324h-164v-220h202v-104h-313v734h293v-104h-182v-204h164v-102z" />
    <glyph glyph-name="F" unicode="F" horiz-adv-x="338" 
d="M312 318h-164v-318h-111v734h293v-104h-182v-210h164v-102z" />
    <glyph glyph-name="G" unicode="G" horiz-adv-x="422" 
d="M305 -4l-6 64q-19 -38 -47.5 -55t-62.5 -17q-49 0 -80 23t-49 69.5t-25 117t-7 165.5q0 93 10 165t33 120.5t62 73.5t96 25q48 0 79 -17.5t49 -52t24 -84.5t5 -114l-107 -9q0 51 -2.5 85t-8.5 54.5t-17.5 29t-30.5 8.5q-23 0 -37.5 -15.5t-22.5 -49t-11 -87.5t-3 -130
q0 -82 3.5 -136.5t12.5 -87t24 -46t38 -13.5q32 0 49.5 29.5t19.5 93.5v59h-73v97h172v-365h-87z" />
    <glyph glyph-name="H" unicode="H" horiz-adv-x="421" 
d="M384 0h-111v316h-124v-316h-112v734h112v-308h124v308h111v-734z" />
    <glyph glyph-name="I" unicode="I" horiz-adv-x="265" 
d="M188 95h58v-95h-227v95h57v544h-56v95h225v-95h-57v-544z" />
    <glyph glyph-name="J" unicode="J" horiz-adv-x="363" 
d="M123 215q0 -21 1.5 -43.5t6 -40.5t14 -29.5t27.5 -11.5q10 0 18.5 3.5t14.5 14.5t9.5 30.5t3.5 51.5v544h111v-567q0 -87 -41 -133t-122 -46q-48 0 -78.5 16.5t-48 46t-24 69.5t-5.5 88z" />
    <glyph glyph-name="K" unicode="K" horiz-adv-x="421" 
d="M149 423l164 311h115l-170 -294l164 -440h-113l-120 328l-40 -67v-261h-112v734h112v-311z" />
    <glyph glyph-name="L" unicode="L" horiz-adv-x="334" 
d="M149 104h174v-104h-286v734h112v-630z" />
    <glyph glyph-name="M" unicode="M" horiz-adv-x="596" 
d="M244 0l-97 573h-4v-573h-106v734h168l93 -578h3l87 578h172v-734h-106v576h-5l-98 -576h-107z" />
    <glyph glyph-name="N" unicode="N" horiz-adv-x="455" 
d="M290 0l-144 507h-3v-507h-106v734h140l133 -488h3v488h105v-734h-128z" />
    <glyph glyph-name="O" unicode="O" 
d="M200 -12q-55 0 -89 23.5t-52.5 70.5t-24.5 118t-6 167t9.5 167t31.5 118.5t58 71t90 23.5q57 0 90.5 -23t51.5 -68.5t23 -114t5 -159.5q0 -100 -8 -174t-29 -123t-57.5 -73t-92.5 -24zM208 86q22 0 34.5 15t19 49t8 88.5t1.5 134.5q0 76 -2 127.5t-8 83.5t-17.5 46
t-31.5 14q-22 0 -35.5 -15t-20.5 -47.5t-9 -85t-2 -127.5q0 -81 1.5 -135.5t8 -87t19 -46.5t34.5 -14z" />
    <glyph glyph-name="P" unicode="P" horiz-adv-x="399" 
d="M37 0v734h116q57 0 100 -11.5t71.5 -37t43 -66t14.5 -99.5q0 -56 -11.5 -100.5t-37.5 -75.5t-68.5 -48t-105.5 -17h-10v-279h-112zM165 385q57 0 80 30t23 102q0 62 -21 86.5t-63 24.5h-35v-243h16z" />
    <glyph glyph-name="Q" unicode="Q" 
d="M200 -12q-55 0 -89 23.5t-52.5 70.5t-24.5 118t-6 167t9.5 167t31.5 118.5t58 71t90 23.5q57 0 90.5 -23t51.5 -68.5t23 -114t5 -159.5q0 -131 -14.5 -217t-54.5 -131l60 -144l-76 -31l-80 130q-5 0 -10.5 -0.5t-11.5 -0.5zM208 86q22 0 34.5 15t19 49t8 88.5t1.5 134.5
q0 76 -2 127.5t-8 83.5t-17.5 46t-31.5 14q-22 0 -35.5 -15t-20.5 -47.5t-9 -85t-2 -127.5q0 -81 1.5 -135.5t8 -87t19 -46.5t34.5 -14z" />
    <glyph glyph-name="R" unicode="R" horiz-adv-x="414" 
d="M193 318h-23h-21v-318h-112v734h118q113 0 170 -45.5t57 -152.5q0 -68 -22.5 -117t-70.5 -75l123 -344h-120zM165 417q53 0 78 24t25 87q0 56 -23.5 78t-60.5 22h-35v-211h16z" />
    <glyph glyph-name="S" unicode="S" horiz-adv-x="392" 
d="M254 498q2 78 -9 112t-49 34q-32 0 -47 -21.5t-15 -53.5q0 -48 20.5 -74.5t58.5 -52.5q27 -20 56 -40.5t53 -48t40 -65t16 -90.5q0 -54 -13.5 -94t-37.5 -65.5t-57 -38t-72 -12.5q-100 0 -141 61.5t-36 180.5l112 10q0 -47 4.5 -77t13.5 -47t22 -23t31 -6q29 0 45.5 20.5
t16.5 65.5q0 28 -7.5 50t-20.5 39t-30.5 30.5t-36.5 25.5q-26 18 -52.5 36.5t-48 44.5t-35 61t-13.5 86t14.5 89t39 62.5t58 37t72.5 12.5q89 0 125.5 -57.5t28.5 -183.5z" />
    <glyph glyph-name="T" unicode="T" horiz-adv-x="356" 
d="M122 630h-116v104h344v-104h-116v-630h-112v630z" />
    <glyph glyph-name="U" unicode="U" horiz-adv-x="413" 
d="M270 734h109v-517q0 -49 -6.5 -91t-25.5 -72.5t-53.5 -48t-90.5 -17.5q-57 0 -91 18.5t-51 50.5t-22 74t-5 90v513h109v-497q0 -42 2.5 -71t9.5 -47t19.5 -26t32.5 -8t32.5 7.5t19 25t9 46t2.5 70.5v500z" />
    <glyph glyph-name="V" unicode="V" horiz-adv-x="433" 
d="M426 734l-132 -734h-149l-137 734h122l86 -598h4l88 598h118z" />
    <glyph glyph-name="W" unicode="W" horiz-adv-x="637" 
d="M379 0l-54 571h-4l-53 -571h-154l-105 734h121l56 -602h5l61 602h146l59 -599h3l51 599h117l-93 -734h-156z" />
    <glyph glyph-name="X" unicode="X" horiz-adv-x="420" 
d="M1 0l126 377l-123 357h121l83 -257h3l77 257h117l-112 -352l127 -382h-120l-89 284h-2l-83 -284h-125z" />
    <glyph glyph-name="Y" unicode="Y" horiz-adv-x="394" 
d="M254 0h-110v280l-147 454h121l81 -331h3l76 331h119l-143 -451v-283z" />
    <glyph glyph-name="Z" unicode="Z" horiz-adv-x="303" 
d="M18 734h273v-95l-157 -535h161v-104h-290v96l160 534h-147v104z" />
    <glyph glyph-name="bracketleft" unicode="[" horiz-adv-x="270" 
d="M254 -132h-208v915h206v-90l-81 -4v-726l83 -3v-92z" />
    <glyph glyph-name="backslash" unicode="\" horiz-adv-x="298" 
d="M290 -87l-107 -17l-163 867l109 15z" />
    <glyph glyph-name="bracketright" unicode="]" horiz-adv-x="270" 
d="M16 -40l83 3v726l-81 4v90h206v-915h-208v92z" />
    <glyph glyph-name="asciicircum" unicode="^" horiz-adv-x="453" 
d="M288 755l139 -373l-90 -30l-107 284h-2l-111 -284l-91 31l155 372h107z" />
    <glyph glyph-name="underscore" unicode="_" horiz-adv-x="330" 
d="M330 -54v-75h-330v75h330z" />
    <glyph glyph-name="grave" unicode="`" horiz-adv-x="500" 
d="M224 764l96 -161l-47 -37l-131 136z" />
    <glyph glyph-name="a" unicode="a" horiz-adv-x="352" 
d="M344 3q-20 -9 -47 -9q-25 0 -46.5 12t-27.5 43q-8 -24 -31 -42.5t-62 -18.5q-34 0 -56.5 12t-35.5 32t-18.5 44.5t-5.5 50.5q0 46 14 76.5t39.5 50t60.5 30t78 16.5v55q0 45 -11 64.5t-35 19.5t-33 -16t-9 -39q0 -11 2 -22.5t4 -22.5l-95 -11q-6 30 -6 57
q0 65 35.5 107.5t109.5 42.5q54 0 83 -18.5t43 -49.5t16.5 -70t2.5 -81v-203q0 -17 3 -25t14 -8q3 0 5.5 0.5t6.5 1.5zM159 77q24 0 35.5 17t11.5 42v82q-51 -4 -71.5 -21t-20.5 -58q0 -22 9.5 -42t35.5 -20z" />
    <glyph glyph-name="b" unicode="b" horiz-adv-x="369" 
d="M37 0v734h104v-272h3q3 11 10 24t18 24t26.5 18t35.5 7q28 0 49 -12.5t35.5 -42.5t21.5 -80t7 -125q0 -84 -9.5 -139.5t-26.5 -88t-41 -46t-54 -13.5q-33 0 -55.5 19t-30.5 47h-3l-8 -54h-82zM138 266q0 -55 3 -89.5t9 -53.5t15.5 -26t22.5 -7q12 0 21 7t15 26.5t9 55.5
t3 93q0 52 -3.5 83.5t-9.5 48.5t-14.5 22t-18.5 5q-13 0 -22.5 -8t-16 -27t-10 -51t-3.5 -79z" />
    <glyph glyph-name="c" unicode="c" horiz-adv-x="342" 
d="M229 327q2 60 -7 84t-35 24q-32 0 -43.5 -38.5t-11.5 -132.5q0 -48 1.5 -82t7 -55t16 -30.5t27.5 -9.5q23 0 34 25t12 81l97 -7q-1 -60 -13.5 -98.5t-32.5 -60.5t-46 -30.5t-54 -8.5q-52 0 -83 20.5t-48 56.5t-22.5 85t-5.5 107q0 135 40 206.5t131 71.5q81 0 110 -52
t25 -149z" />
    <glyph glyph-name="d" unicode="d" horiz-adv-x="365" 
d="M332 734v-734h-89l-9 57h-2q-9 -26 -30.5 -47.5t-53.5 -21.5q-34 0 -58 13.5t-39 44.5t-21.5 80t-6.5 121q0 78 7.5 132.5t22.5 89t38.5 50.5t55.5 16t49 -17t28 -39h4v255h104zM231 257q0 50 -2.5 83.5t-8.5 54t-15 29t-22 8.5q-15 0 -24.5 -9t-15 -30.5t-8 -57
t-2.5 -87.5q0 -47 2.5 -77.5t8 -48t14.5 -24t22 -6.5q30 0 40.5 38t10.5 127z" />
    <glyph glyph-name="e" unicode="e" horiz-adv-x="348" 
d="M326 188q0 -60 -11.5 -99t-31.5 -61.5t-46 -31t-54 -8.5q-54 0 -85.5 20t-48.5 56t-22 85.5t-5 108.5q0 129 40 203t129 74q71 0 103.5 -45.5t32.5 -151.5q0 -21 -1.5 -45t-3.5 -51h-190q0 -78 8 -116.5t43 -38.5q28 0 36.5 24.5t8.5 81.5zM226 315q1 10 1 18.5v16.5
q0 44 -9 65t-33 21q-32 0 -42.5 -33.5t-11.5 -87.5h95z" />
    <glyph glyph-name="f" unicode="f" horiz-adv-x="239" 
d="M3 523h50v55q0 52 11.5 85t30 52t42 25.5t48.5 6.5q24 0 46.5 -5t31.5 -10l-13 -82q-10 4 -23 6t-25 2q-45 0 -45 -68v-67h82v-88h-82v-435h-104v435h-50v88z" />
    <glyph glyph-name="g" unicode="g" horiz-adv-x="361" 
d="M329 523v-499q0 -49 -6.5 -89.5t-24 -69t-47 -44.5t-75.5 -16q-71 0 -107 40t-40 110l103 10q1 -33 11.5 -52.5t33.5 -19.5q13 0 22.5 4.5t15.5 16t9 31.5t3 51v80h-3q-4 -10 -10.5 -21.5t-17 -21t-24.5 -16t-33 -6.5q-28 0 -50 12.5t-37.5 40t-23.5 73t-8 111.5
q0 80 8 135t24 88.5t39 48.5t53 15q29 0 46.5 -15t31.5 -41h3l10 44h94zM228 262q0 52 -2.5 85t-8.5 52t-15 26t-22 7t-22.5 -7t-15.5 -26t-9 -51.5t-3 -83.5q0 -45 3 -74t9 -45.5t14.5 -23t19.5 -6.5q28 0 40 33.5t12 113.5z" />
    <glyph glyph-name="h" unicode="h" horiz-adv-x="372" 
d="M233 363q0 38 -7.5 54t-29.5 16q-18 0 -29 -9.5t-16.5 -25.5t-7.5 -37t-2 -44v-317h-105v734h105v-274h1q3 9 8.5 22t16.5 24.5t28 20t42 8.5q31 0 50.5 -10.5t30.5 -29t15.5 -45t4.5 -57.5v-393h-105v363z" />
    <glyph glyph-name="i" unicode="i" horiz-adv-x="178" 
d="M39 734h103v-132h-103v132zM39 523h103v-523h-103v523z" />
    <glyph glyph-name="j" unicode="j" horiz-adv-x="177" 
d="M35 734h108v-132h-108v132zM-48 -98q18 -6 37 -6q26 0 37 17.5t11 59.5v550h104v-558q0 -47 -11 -78t-29 -49t-42 -25.5t-51 -7.5q-20 0 -36 3t-28 7z" />
    <glyph glyph-name="k" unicode="k" horiz-adv-x="377" 
d="M141 314l115 209h114l-119 -187l126 -336h-111l-84 234l-41 -64v-170h-104v734h104v-420z" />
    <glyph glyph-name="l" unicode="l" horiz-adv-x="176" 
d="M141 0h-105v734h105v-734z" />
    <glyph glyph-name="m" unicode="m" horiz-adv-x="553" 
d="M237 535q42 0 60.5 -19.5t25.5 -54.5h4q3 13 10 26.5t19 24t29 17t39 6.5q29 0 47.5 -9t29 -26.5t14.5 -42.5t4 -57v-400h-104v363q0 38 -7.5 54.5t-27.5 16.5q-48 0 -48 -80v-354h-108v363q0 37 -6.5 54t-27.5 17q-28 0 -38 -30t-10 -78v-326h-105v523h92l4 -67h2
q10 32 32.5 55.5t69.5 23.5z" />
    <glyph glyph-name="n" unicode="n" horiz-adv-x="373" 
d="M339 0h-105v363q0 32 -6 51.5t-31 19.5q-18 0 -29 -9.5t-16.5 -25.5t-7.5 -37.5t-2 -44.5v-317h-105v523h93l3 -67h2q3 9 9 22.5t17 26t29.5 21.5t46.5 9q30 0 50 -10.5t31.5 -29t16 -45t4.5 -57.5v-393z" />
    <glyph glyph-name="o" unicode="o" horiz-adv-x="355" 
d="M173 -12q-43 0 -72 16.5t-46.5 50t-25 85t-7.5 121.5q0 140 39 207t125 67q45 0 73.5 -16.5t45 -49.5t23 -82.5t6.5 -115.5q0 -143 -36 -213t-125 -70zM179 86q17 0 26 10.5t13.5 32.5t5 56.5t0.5 82.5q0 45 -1 76.5t-5.5 51.5t-13 29.5t-24.5 9.5q-33 0 -40.5 -41
t-7.5 -131q0 -45 1 -78.5t5.5 -55.5t14 -32.5t26.5 -10.5z" />
    <glyph glyph-name="p" unicode="p" horiz-adv-x="369" 
d="M37 -183v706h90l4 -65h3q4 13 11.5 26.5t19.5 24.5t28.5 18.5t38.5 7.5q28 0 50 -12t36 -41.5t21.5 -80t7.5 -126.5q0 -83 -8.5 -138t-24 -88t-38.5 -47t-52 -14q-34 0 -53 18t-27 38h-3v-227h-104zM138 265q0 -51 2.5 -85t8.5 -53.5t15.5 -27.5t24.5 -8q31 0 39 43.5
t8 137.5q0 49 -2.5 80.5t-8 48.5t-14 23.5t-21.5 6.5t-23 -8t-16.5 -27.5t-9.5 -51.5t-3 -79z" />
    <glyph glyph-name="q" unicode="q" horiz-adv-x="365" 
d="M332 523v-706h-104v242h-4q-4 -12 -10.5 -24.5t-17 -23t-25 -17t-34.5 -6.5q-27 0 -48 12t-36 42t-22.5 80t-7.5 125q0 85 9 140.5t25.5 88.5t40.5 46t54 13q31 0 48.5 -18t26.5 -38h4l8 44h93zM231 257q0 49 -2.5 83t-8 54t-14.5 29t-21 9q-14 0 -23.5 -7t-16 -27
t-9.5 -55.5t-3 -93.5q0 -51 3.5 -82t9.5 -47.5t14.5 -22t19.5 -5.5q27 0 39 37t12 128z" />
    <glyph glyph-name="r" unicode="r" horiz-adv-x="337" 
d="M222 335q3 32 2 51.5t-4.5 30t-10 14t-14.5 3.5q-29 0 -41 -33.5t-12 -109.5v-291h-105v523h92l4 -69h2q4 13 11 27.5t19.5 26.5t30.5 19.5t43 7.5q55 0 75.5 -47t12.5 -145z" />
    <glyph glyph-name="s" unicode="s" horiz-adv-x="325" 
d="M215 357q1 37 -7.5 60t-37.5 23q-20 0 -32 -11.5t-12 -37.5q0 -25 14 -41.5t34.5 -30t44.5 -27t44.5 -32.5t34.5 -46.5t14 -68.5q0 -83 -42 -120t-109 -37q-75 0 -110 45.5t-35 126.5l95 8q-1 -45 11 -67.5t42 -22.5q20 0 32 12.5t12 40.5t-13.5 45.5t-34 31.5t-44 27
t-44 31.5t-34 45.5t-13.5 70q0 39 12 68t33 48t48 28t57 9q64 0 99 -38.5t33 -132.5z" />
    <glyph glyph-name="t" unicode="t" horiz-adv-x="260" 
d="M3 523h50v95l104 27v-122h82v-88h-82v-281q0 -44 10.5 -59.5t36.5 -15.5q10 0 21.5 2.5t21.5 5.5l11 -85q-7 -3 -31.5 -8.5t-53.5 -5.5q-25 0 -46.5 7t-38 24.5t-26 46t-9.5 70.5v299h-50v88z" />
    <glyph glyph-name="u" unicode="u" horiz-adv-x="369" 
d="M35 523h104v-359q0 -35 6.5 -55t32.5 -20q17 0 27.5 10t16 26.5t7 38t1.5 44.5v315h105v-523h-92l-3 66h-3q-3 -10 -9 -23.5t-17 -25.5t-29 -20.5t-46 -8.5q-31 0 -50.5 10t-31 29t-15.5 45t-4 58v393z" />
    <glyph glyph-name="v" unicode="v" horiz-adv-x="340" 
d="M106 0l-109 523h120l54 -389h4l55 389h113l-103 -523h-134z" />
    <glyph glyph-name="w" unicode="w" horiz-adv-x="571" 
d="M94 0l-95 523h108l55 -412h5l57 412h125l58 -412h4l56 412h105l-93 -523h-134l-58 405h-4l-57 -405h-132z" />
    <glyph glyph-name="x" unicode="x" horiz-adv-x="344" 
d="M-3 0l113 268l-106 255h113l58 -174h3l58 174h106l-103 -259l108 -264h-110l-64 180h-3l-60 -180h-113z" />
    <glyph glyph-name="y" unicode="y" horiz-adv-x="341" 
d="M215 -32q-11 -48 -25.5 -79.5t-33.5 -50t-42.5 -26t-52.5 -7.5q-17 0 -34.5 4t-25.5 9l9 82q24 -8 41 -8q15 0 25 4t17.5 14t12.5 27t10 43l6 32l-125 511h121l54 -386h5l54 386h115z" />
    <glyph glyph-name="z" unicode="z" horiz-adv-x="305" 
d="M26 523h265v-92l-159 -330h162v-101h-282v93l162 329h-148v101z" />
    <glyph glyph-name="braceleft" unicode="{" horiz-adv-x="327" 
d="M109 641q0 39 8 64.5t28 42t53 24t83 10.5l3 -46q-34 -5 -43.5 -26.5t-9.5 -58.5v-183q0 -57 -26.5 -93.5t-90.5 -53.5v-2q62 -5 89.5 -39.5t27.5 -96.5v-177q0 -34 8.5 -55.5t45.5 -28.5l-5 -51q-42 2 -74 8.5t-53.5 20.5t-32.5 36t-11 56v199q0 16 -2.5 34t-10.5 33
t-23.5 25t-40.5 10v51q25 3 40.5 14t23.5 26t10.5 33.5t2.5 37.5v186z" />
    <glyph glyph-name="bar" unicode="|" horiz-adv-x="227" 
d="M175 760v-1000h-118v1000h118z" />
    <glyph glyph-name="braceright" unicode="}" horiz-adv-x="327" 
d="M218 455q0 -19 2.5 -37.5t10.5 -33.5t23 -26t41 -14v-51q-26 0 -41 -10t-23 -25t-10.5 -33t-2.5 -34v-199q0 -34 -11 -56t-32.5 -36t-53.5 -20.5t-74 -8.5l-5 51q37 7 45.5 28.5t8.5 55.5v177q0 62 27.5 96.5t89.5 39.5v2q-64 17 -90.5 53.5t-26.5 93.5v183
q0 37 -9.5 58.5t-43.5 26.5l3 46q50 -3 83 -10.5t53 -24t28 -42t8 -64.5v-186z" />
    <glyph glyph-name="asciitilde" unicode="~" horiz-adv-x="500" 
d="M72 233q25 114 101 114q20 0 38.5 -5t43.5 -16q17 -8 30.5 -12.5t26.5 -4.5q14 0 24 9.5t16 32.5l76 -21q-11 -54 -33 -83t-60 -29q-23 0 -43.5 6t-37.5 14q-19 8 -35 14.5t-30 6.5q-18 0 -27.5 -13t-16.5 -39z" />
    <glyph glyph-name="uni00A0" unicode="&#xa0;" horiz-adv-x="154" 
 />
    <glyph glyph-name="exclamdown" unicode="&#xa1;" horiz-adv-x="242" 
d="M166 322l22 -533h-133l25 533h86zM74 523h99v-145h-99v145z" />
    <glyph glyph-name="cent" unicode="&#xa2;" horiz-adv-x="363" 
d="M244 421q2 59 -7.5 83.5t-35.5 24.5q-33 0 -44 -39t-11 -133q0 -49 1.5 -83t7 -55t16 -30.5t27.5 -9.5q24 0 34 24.5t12 82.5l97 -7q-1 -46 -8.5 -79.5t-20 -56t-29.5 -36t-37 -19.5v-88h-99v86q-36 9 -57.5 33t-33.5 58.5t-16 78.5t-4 95q0 109 26 177t86 90v77h99v-71
q57 -13 77.5 -63t16.5 -134z" />
    <glyph glyph-name="sterling" unicode="&#xa3;" horiz-adv-x="369" 
d="M27 404h60q-17 34 -31.5 73.5t-14.5 96.5q0 45 13 77.5t34.5 54t51 31.5t62.5 10q56 0 88 -21.5t46.5 -56t15 -78.5t-6.5 -90l-98 9q3 30 3 54.5t-4.5 42t-15 26.5t-28.5 9q-24 0 -37.5 -17t-13.5 -49q0 -25 5 -47.5t13 -43.5t17.5 -41t18.5 -40h121v-85h-96
q1 -6 1.5 -12.5t0.5 -12.5q0 -93 -86 -191h193v-103h-313v96q28 30 46.5 55t29.5 47.5t16 43.5t5 44q0 16 -3 33h-93v85z" />
    <glyph glyph-name="yen" unicode="&#xa5;" horiz-adv-x="404" 
d="M259 334v-68h89v-75h-89v-191h-110v191h-92v75h92v68h-92v75h69l-124 325h121l81 -285h3l77 285h118l-122 -325h68v-75h-89z" />
    <glyph glyph-name="brokenbar" unicode="&#xa6;" horiz-adv-x="227" 
d="M57 205h119v-445h-119v445zM176 760v-445h-119v445h119z" />
    <glyph glyph-name="section" unicode="&#xa7;" horiz-adv-x="469" 
d="M49 245q0 51 23 92.5t62 76.5q-26 24 -44 57.5t-18 84.5q0 39 11.5 72t34 56.5t56 37t76.5 13.5q85 0 126 -51.5t45 -147.5l-111 -12q-3 54 -16.5 80.5t-45.5 26.5q-29 0 -42 -19.5t-13 -51.5q0 -34 17.5 -56t43.5 -38.5t56 -31t56 -35t43.5 -49.5t17.5 -74
q0 -51 -23.5 -91t-62.5 -77q26 -24 44 -58t18 -84q0 -39 -11.5 -72t-33.5 -56.5t-54.5 -37t-74.5 -13.5q-86 0 -129.5 53.5t-45.5 146.5l111 12q4 -53 18 -80.5t45 -27.5q29 0 42 19.5t13 51.5q0 34 -17.5 55.5t-43.5 38t-56 31t-56 35t-43.5 49.5t-17.5 74zM157 268
q0 -23 10.5 -39t27.5 -28t38 -22t42 -23q20 22 31.5 47t11.5 52q0 23 -10.5 38.5t-27 27t-37.5 22t-42 22.5q-20 -20 -32 -45t-12 -52z" />
    <glyph glyph-name="dieresis" unicode="&#xa8;" horiz-adv-x="500" 
d="M275 714h82v-109h-82v109zM143 714h82v-109h-82v109z" />
    <glyph glyph-name="copyright" unicode="&#xa9;" horiz-adv-x="633" 
d="M599 344q0 -83 -20.5 -149t-57.5 -112t-89.5 -70.5t-115.5 -24.5q-71 0 -123.5 25.5t-87.5 70.5t-52.5 107.5t-17.5 136.5q0 86 22 152t60.5 111t90 68.5t111.5 23.5q66 0 118 -23t88 -67t55 -107t19 -142zM318 50q105 0 157 76t52 211q0 143 -55 213.5t-152 70.5
q-100 0 -156.5 -74.5t-56.5 -216.5q0 -134 52 -207t159 -73zM454 283q-5 -38 -17.5 -64.5t-30.5 -43.5t-40.5 -25t-46.5 -8q-38 0 -65 14t-44.5 39.5t-25.5 61.5t-8 79t9.5 80t28 63t46.5 41t66 15q60 0 91.5 -38.5t33.5 -103.5l-69 -11q-4 39 -15 63.5t-44 24.5t-51 -32
t-18 -106q0 -59 15.5 -91.5t51.5 -32.5q18 0 29 7.5t18 20t11 28.5l8 32z" />
    <glyph glyph-name="ordfeminine" unicode="&#xaa;" horiz-adv-x="261" 
d="M253 421q-15 -5 -30.5 -6t-29 2t-23.5 12t-14 24q-6 -13 -22 -27.5t-44 -14.5q-23 0 -38 7t-24 19t-13 27.5t-4 32.5q0 30 11 48t29.5 29.5t42.5 17t50 9.5v22q0 22 -6 37t-20 15q-18 0 -21.5 -15t-1.5 -35l-72 -6q-5 25 -2 48.5t15 41.5t34 28.5t55 10.5q38 0 59 -12.5
t30.5 -32.5t11.5 -44t2 -46v-115q0 -28 23 -21zM144 550q-26 -3 -40.5 -12t-14.5 -32q0 -11 5 -20.5t20 -9.5t22.5 9t7.5 21v44z" />
    <glyph glyph-name="guillemotleft" unicode="&#xab;" horiz-adv-x="375" 
d="M279 52l-100 199l100 190l77 -30l-71 -158l69 -169zM128 52l-100 199l100 190l77 -30l-71 -158l69 -169z" />
    <glyph glyph-name="logicalnot" unicode="&#xac;" 
d="M260 155v127h-198v91h290v-218h-92z" />
    <glyph glyph-name="uni00AD" unicode="&#xad;" horiz-adv-x="276" 
d="M36 277v88h196v-88h-196z" />
    <glyph glyph-name="registered" unicode="&#xae;" horiz-adv-x="405" 
d="M372 543q0 -45 -12.5 -80.5t-35 -60.5t-54 -38.5t-69.5 -13.5q-42 0 -73.5 13.5t-52.5 38.5t-31.5 59t-10.5 75q0 46 13.5 82.5t36.5 62t54.5 38.5t67.5 13q77 0 122 -50.5t45 -138.5zM314 543q0 137 -111 137q-56 0 -84.5 -36.5t-28.5 -106.5q0 -66 27.5 -101t83.5 -35
q58 0 85.5 36.5t27.5 105.5zM284 447h-52l-34 75h-12v-75h-45v191h62q38 0 52.5 -15.5t14.5 -38.5q0 -36 -30 -50zM195 557q12 0 19 4.5t7 20.5q0 12 -6.5 16t-17.5 4h-11v-45h9z" />
    <glyph glyph-name="macron" unicode="&#xaf;" horiz-adv-x="500" 
d="M134 690h232v-80h-232v80z" />
    <glyph glyph-name="degree" unicode="&#xb0;" horiz-adv-x="248" 
d="M122 527q-50 0 -75 30t-25 82q0 53 29.5 83t76.5 30q48 0 73 -29t25 -80q0 -55 -26.5 -85.5t-77.5 -30.5zM123 585q16 0 23 12.5t7 42.5t-7.5 41t-21.5 11q-12 0 -21 -10.5t-9 -42.5t7 -43t22 -11z" />
    <glyph glyph-name="plusminus" unicode="&#xb1;" 
d="M253 282v-99h-90v99h-101v91h101v99h90v-99h99v-91h-99zM62 0v90h290v-90h-290z" />
    <glyph glyph-name="uni00B2" unicode="&#xb2;" horiz-adv-x="245" 
d="M219 467v-77h-191q-1 14 -1.5 25t-0.5 23q0 47 18.5 86t40.5 74t40.5 69t18.5 71q0 20 -6.5 27.5t-15.5 7.5q-16 0 -22 -17t-1 -60l-77 -9q-5 31 -2.5 61t15 53.5t36 37.5t60.5 14q48 0 73 -27t25 -84q0 -47 -17.5 -84t-39.5 -69t-40.5 -61.5t-19.5 -60.5h107z" />
    <glyph glyph-name="uni00B3" unicode="&#xb3;" horiz-adv-x="260" 
d="M76 658q23 1 37 6.5t21.5 15t10 23t2.5 31.5q0 27 -7.5 35t-15.5 8q-15 0 -21.5 -16t-1.5 -53l-77 -2q-3 27 -1.5 53.5t13 47.5t33.5 33.5t60 12.5q52 0 79 -28t27 -82q0 -50 -22.5 -76t-55.5 -37q26 -6 42.5 -16.5t25.5 -25.5t12.5 -34t3.5 -42q0 -59 -28 -94t-94 -35
q-32 0 -53 10.5t-33 29.5t-17 46t-5 60l84 4q1 -43 7 -57.5t22 -14.5q26 0 26 59q0 41 -15.5 54.5t-54.5 13.5z" />
    <glyph glyph-name="acute" unicode="&#xb4;" horiz-adv-x="500" 
d="M358 703l-125 -137l-49 37l97 161z" />
    <glyph glyph-name="uni00B5" unicode="&#xb5;" horiz-adv-x="399" 
d="M48 523h104v-348q0 -45 9.5 -64t35.5 -19q52 0 52 93v338h101v-523h-69l-9 76h-2q-9 -32 -26.5 -49.5t-37.5 -25.5q-22 -10 -39.5 -10.5t-31.5 4.5l-2 -2l12 -169h-97v699z" />
    <glyph glyph-name="paragraph" unicode="&#xb6;" horiz-adv-x="476" 
d="M213 226h-1q-92 11 -138.5 77.5t-46.5 173.5q0 51 11.5 98t37 82t66.5 56t101 21h57v-875h-87v367zM344 734h87v-874h-87v874z" />
    <glyph glyph-name="periodcentered" unicode="&#xb7;" horiz-adv-x="193" 
d="M47 403h100v-145h-100v145z" />
    <glyph glyph-name="cedilla" unicode="&#xb8;" horiz-adv-x="500" 
d="M238 0h47l-23 -50l1 -1q5 3 13 5.5t19 2.5q30 0 46 -21.5t16 -54.5q0 -25 -8 -43t-21 -30t-29.5 -17.5t-34.5 -5.5q-32 0 -54.5 16.5t-33.5 48.5l47 22q13 -34 37 -34q13 0 21 9.5t8 30.5q0 37 -26 37q-15 0 -25 -13l-32 17z" />
    <glyph glyph-name="uni00B9" unicode="&#xb9;" horiz-adv-x="216" 
d="M10 783q31 11 60 26.5t55 35.5h52v-455h-92v348q-10 -7 -25 -15t-39 -16z" />
    <glyph glyph-name="ordmasculine" unicode="&#xba;" horiz-adv-x="265" 
d="M130 411q-57 0 -83 39t-26 127q0 86 29.5 128t86.5 42q32 0 52.5 -10.5t32.5 -31t17 -51t5 -71.5q0 -90 -27 -131t-87 -41zM133 480q18 0 23 21t5 79q0 53 -3.5 74t-22.5 21t-25 -21.5t-6 -75.5q0 -56 5.5 -77t23.5 -21z" />
    <glyph glyph-name="guillemotright" unicode="&#xbb;" horiz-adv-x="375" 
d="M21 84l69 169l-71 158l77 30l100 -190l-100 -199zM172 84l69 169l-71 158l77 30l100 -190l-100 -199z" />
    <glyph glyph-name="onequarter" unicode="&#xbc;" horiz-adv-x="613" 
d="M483 159v199h-3l-68 -199h71zM565 159h43v-74h-43v-85h-82v85h-146v51l117 319h111v-296zM6 672q31 11 60 26.5t55 35.5h52v-455h-92v348q-10 -7 -25 -15t-39 -16zM411 756l76 -26l-289 -747l-76 29z" />
    <glyph glyph-name="onehalf" unicode="&#xbd;" horiz-adv-x="613" 
d="M580 78v-77h-191q-1 14 -1.5 25t-0.5 23q0 47 18.5 86t40.5 74t40.5 69t18.5 71q0 20 -6.5 27.5t-15.5 7.5q-16 0 -22 -17t-1 -60l-77 -9q-5 31 -2.5 61t15 53.5t36 37.5t60.5 14q48 0 73 -27t25 -84q0 -47 -17.5 -84t-39.5 -69t-40.5 -61.5t-19.5 -60.5h107zM2 672
q31 11 60 26.5t55 35.5h52v-455h-92v348q-10 -7 -25 -15t-39 -16zM389 756l76 -26l-289 -747l-76 29z" />
    <glyph glyph-name="threequarters" unicode="&#xbe;" horiz-adv-x="613" 
d="M497 159v199h-3l-68 -199h71zM579 159h43v-74h-43v-85h-82v85h-146v51l117 319h111v-296zM79 546q23 1 37 6.5t21.5 15t10 23t2.5 31.5q0 27 -7.5 35t-15.5 8q-15 0 -21.5 -16t-1.5 -53l-77 -2q-3 27 -1.5 53.5t13 47.5t33.5 33.5t60 12.5q52 0 79 -28t27 -82
q0 -50 -22.5 -76t-55.5 -37q26 -6 42.5 -16.5t25.5 -25.5t12.5 -34t3.5 -42q0 -59 -28 -94t-94 -35q-32 0 -53 10.5t-33 29.5t-17 46t-5 60l84 4q1 -43 7 -57.5t22 -14.5q26 0 26 59q0 41 -15.5 54.5t-54.5 13.5zM437 756l76 -26l-289 -747l-76 29z" />
    <glyph glyph-name="questiondown" unicode="&#xbf;" horiz-adv-x="408" 
d="M155 -1q0 -38 4 -61t11 -36.5t17 -18t22 -4.5q13 0 23.5 5t18 18t11.5 36.5t4 60.5l119 -9q0 -41 -7 -79.5t-26.5 -68.5t-54.5 -48t-91 -18q-95 0 -136.5 56.5t-41.5 161.5q0 60 11.5 100.5t33 67t51.5 41.5t67 23l9 92h97l7 -163q-46 -2 -75 -12t-45.5 -28.5
t-22.5 -47.5t-6 -68zM299 378h-100v145h100v-145z" />
    <glyph glyph-name="Agrave" unicode="&#xc0;" horiz-adv-x="426" 
d="M286 734l134 -734h-121l-28 179h-122l-27 -179h-116l128 734h152zM213 604h-5l-48 -323h98zM163 929l153 -114l-32 -53l-176 81z" />
    <glyph glyph-name="Aacute" unicode="&#xc1;" horiz-adv-x="426" 
d="M286 734l134 -734h-121l-28 179h-122l-27 -179h-116l128 734h152zM213 604h-5l-48 -323h98zM320 843l-175 -80l-30 53l153 113z" />
    <glyph glyph-name="Acircumflex" unicode="&#xc2;" horiz-adv-x="426" 
d="M286 734l134 -734h-121l-28 179h-122l-27 -179h-116l128 734h152zM213 604h-5l-48 -323h98zM241 914l110 -115l-35 -38l-106 71l-106 -71l-36 38l111 115h62z" />
    <glyph glyph-name="Atilde" unicode="&#xc3;" horiz-adv-x="426" 
d="M286 734l134 -734h-121l-28 179h-122l-27 -179h-116l128 734h152zM213 604h-5l-48 -323h98zM88 795q6 50 25.5 72.5t45.5 22.5q13 0 26.5 -4t25.5 -8.5t23 -8t20 -3.5q10 0 16.5 5.5t10.5 22.5l53 -6q-5 -45 -22 -73.5t-52 -28.5q-14 0 -27 4t-25.5 9t-23.5 9t-20 4
q-18 0 -25 -28z" />
    <glyph glyph-name="Adieresis" unicode="&#xc4;" horiz-adv-x="426" 
d="M286 734l134 -734h-121l-28 179h-122l-27 -179h-116l128 734h152zM213 604h-5l-48 -323h98zM236 889h83v-109h-83v109zM103 889h83v-109h-83v109z" />
    <glyph glyph-name="Aring" unicode="&#xc5;" horiz-adv-x="426" 
d="M286 734l134 -734h-121l-28 179h-122l-27 -179h-116l128 734h152zM213 604h-5l-48 -323h98zM209 764q-42 0 -64 24t-22 64q0 38 24.5 62.5t65.5 24.5q42 0 64 -23.5t22 -61.5q0 -42 -23.5 -66t-66.5 -24zM210 809q29 0 29 43q0 40 -28 40q-14 0 -21.5 -9t-7.5 -32
t7 -32.5t21 -9.5z" />
    <glyph glyph-name="AE" unicode="&#xc6;" horiz-adv-x="596" 
d="M546 317h-164v-213h202v-104h-314v317h-96l-67 -317h-115l164 734h408v-104h-182v-217h164v-96zM191 412h79v218h-30z" />
    <glyph glyph-name="Ccedilla" unicode="&#xc7;" horiz-adv-x="409" 
d="M191 -11q-52 3 -84 27.5t-49.5 71.5t-23.5 115.5t-6 160.5q0 94 10 166t33 120t61.5 72.5t94.5 24.5q48 0 79 -17t49 -50.5t24.5 -84t5.5 -116.5l-107 -9q0 50 -2 84t-8.5 54.5t-18 29.5t-29.5 9q-23 0 -37 -15.5t-22.5 -49.5t-11.5 -87t-3 -129q0 -80 1.5 -134
t8.5 -87.5t20.5 -48t37.5 -14.5q19 0 30.5 12t17.5 34.5t8 54.5t2 73l107 -7q0 -65 -7.5 -112t-24.5 -78.5t-44 -48t-65 -20.5l-18 -40l1 -1q5 3 13 5.5t19 2.5q30 0 46 -21.5t16 -54.5q0 -25 -8 -43t-21 -30t-29.5 -17.5t-34.5 -5.5q-32 0 -54.5 16.5t-33.5 48.5l47 22
q13 -34 37 -34q13 0 21 9.5t8 30.5q0 37 -26 37q-15 0 -25 -13l-32 17z" />
    <glyph glyph-name="Egrave" unicode="&#xc8;" horiz-adv-x="362" 
d="M127 929l153 -114l-32 -53l-176 81zM312 324h-164v-220h202v-104h-313v734h293v-104h-182v-204h164v-102z" />
    <glyph glyph-name="Eacute" unicode="&#xc9;" horiz-adv-x="362" 
d="M296 843l-175 -80l-30 53l153 113zM312 324h-164v-220h202v-104h-313v734h293v-104h-182v-204h164v-102z" />
    <glyph glyph-name="Ecircumflex" unicode="&#xca;" horiz-adv-x="362" 
d="M312 324h-164v-220h202v-104h-313v734h293v-104h-182v-204h164v-102zM217 914l110 -115l-35 -38l-106 71l-106 -71l-36 38l111 115h62z" />
    <glyph glyph-name="Edieresis" unicode="&#xcb;" horiz-adv-x="362" 
d="M215 889h83v-109h-83v109zM82 889h83v-109h-83v109zM312 324h-164v-220h202v-104h-313v734h293v-104h-182v-204h164v-102z" />
    <glyph glyph-name="Igrave" unicode="&#xcc;" horiz-adv-x="265" 
d="M188 95h58v-95h-227v95h57v544h-56v95h225v-95h-57v-544zM70 929l153 -114l-32 -53l-176 81z" />
    <glyph glyph-name="Iacute" unicode="&#xcd;" horiz-adv-x="265" 
d="M188 95h58v-95h-227v95h57v544h-56v95h225v-95h-57v-544zM237 843l-175 -80l-30 53l153 113z" />
    <glyph glyph-name="Icircumflex" unicode="&#xce;" horiz-adv-x="265" 
d="M188 95h58v-95h-227v95h57v544h-56v95h225v-95h-57v-544zM162 914l110 -115l-35 -38l-106 71l-106 -71l-36 38l111 115h62z" />
    <glyph glyph-name="Idieresis" unicode="&#xcf;" horiz-adv-x="265" 
d="M188 95h58v-95h-227v95h57v544h-56v95h225v-95h-57v-544zM156 889h83v-109h-83v109zM23 889h83v-109h-83v109z" />
    <glyph glyph-name="Eth" unicode="&#xd0;" horiz-adv-x="443" 
d="M58 0v325h-47v94h47v315h115q75 0 122.5 -21t74 -64.5t36 -110.5t9.5 -160q0 -100 -9.5 -171.5t-36.5 -117.5t-75.5 -67.5t-125.5 -21.5h-110zM187 98q37 0 58.5 13t33 44.5t15 84.5t3.5 133q0 76 -4 126.5t-15.5 81t-33 43.5t-56.5 13h-19v-218h74v-94h-74v-227h18z" />
    <glyph glyph-name="Ntilde" unicode="&#xd1;" horiz-adv-x="455" 
d="M118 795q6 50 25.5 72.5t45.5 22.5q13 0 26.5 -4t25.5 -8.5t23 -8t20 -3.5q10 0 16.5 5.5t10.5 22.5l53 -6q-5 -45 -22 -73.5t-52 -28.5q-14 0 -27 4t-25.5 9t-23.5 9t-20 4q-18 0 -25 -28zM290 0l-144 507h-3v-507h-106v734h140l133 -488h3v488h105v-734h-128z" />
    <glyph glyph-name="Ograve" unicode="&#xd2;" 
d="M150 929l153 -114l-32 -53l-176 81zM200 -12q-55 0 -89 23.5t-52.5 70.5t-24.5 118t-6 167t9.5 167t31.5 118.5t58 71t90 23.5q57 0 90.5 -23t51.5 -68.5t23 -114t5 -159.5q0 -100 -8 -174t-29 -123t-57.5 -73t-92.5 -24zM208 86q22 0 34.5 15t19 49t8 88.5t1.5 134.5
q0 76 -2 127.5t-8 83.5t-17.5 46t-31.5 14q-22 0 -35.5 -15t-20.5 -47.5t-9 -85t-2 -127.5q0 -81 1.5 -135.5t8 -87t19 -46.5t34.5 -14z" />
    <glyph glyph-name="Oacute" unicode="&#xd3;" 
d="M325 843l-175 -80l-30 53l153 113zM200 -12q-55 0 -89 23.5t-52.5 70.5t-24.5 118t-6 167t9.5 167t31.5 118.5t58 71t90 23.5q57 0 90.5 -23t51.5 -68.5t23 -114t5 -159.5q0 -100 -8 -174t-29 -123t-57.5 -73t-92.5 -24zM208 86q22 0 34.5 15t19 49t8 88.5t1.5 134.5
q0 76 -2 127.5t-8 83.5t-17.5 46t-31.5 14q-22 0 -35.5 -15t-20.5 -47.5t-9 -85t-2 -127.5q0 -81 1.5 -135.5t8 -87t19 -46.5t34.5 -14z" />
    <glyph glyph-name="Ocircumflex" unicode="&#xd4;" 
d="M200 -12q-55 0 -89 23.5t-52.5 70.5t-24.5 118t-6 167t9.5 167t31.5 118.5t58 71t90 23.5q57 0 90.5 -23t51.5 -68.5t23 -114t5 -159.5q0 -100 -8 -174t-29 -123t-57.5 -73t-92.5 -24zM208 86q22 0 34.5 15t19 49t8 88.5t1.5 134.5q0 76 -2 127.5t-8 83.5t-17.5 46
t-31.5 14q-22 0 -35.5 -15t-20.5 -47.5t-9 -85t-2 -127.5q0 -81 1.5 -135.5t8 -87t19 -46.5t34.5 -14zM241 914l110 -115l-35 -38l-106 71l-106 -71l-36 38l111 115h62z" />
    <glyph glyph-name="Otilde" unicode="&#xd5;" 
d="M86 795q6 50 25.5 72.5t45.5 22.5q13 0 26.5 -4t25.5 -8.5t23 -8t20 -3.5q10 0 16.5 5.5t10.5 22.5l53 -6q-5 -45 -22 -73.5t-52 -28.5q-14 0 -27 4t-25.5 9t-23.5 9t-20 4q-18 0 -25 -28zM200 -12q-55 0 -89 23.5t-52.5 70.5t-24.5 118t-6 167t9.5 167t31.5 118.5t58 71
t90 23.5q57 0 90.5 -23t51.5 -68.5t23 -114t5 -159.5q0 -100 -8 -174t-29 -123t-57.5 -73t-92.5 -24zM208 86q22 0 34.5 15t19 49t8 88.5t1.5 134.5q0 76 -2 127.5t-8 83.5t-17.5 46t-31.5 14q-22 0 -35.5 -15t-20.5 -47.5t-9 -85t-2 -127.5q0 -81 1.5 -135.5t8 -87
t19 -46.5t34.5 -14z" />
    <glyph glyph-name="Odieresis" unicode="&#xd6;" 
d="M236 889h83v-109h-83v109zM103 889h83v-109h-83v109zM200 -12q-55 0 -89 23.5t-52.5 70.5t-24.5 118t-6 167t9.5 167t31.5 118.5t58 71t90 23.5q57 0 90.5 -23t51.5 -68.5t23 -114t5 -159.5q0 -100 -8 -174t-29 -123t-57.5 -73t-92.5 -24zM208 86q22 0 34.5 15t19 49
t8 88.5t1.5 134.5q0 76 -2 127.5t-8 83.5t-17.5 46t-31.5 14q-22 0 -35.5 -15t-20.5 -47.5t-9 -85t-2 -127.5q0 -81 1.5 -135.5t8 -87t19 -46.5t34.5 -14z" />
    <glyph glyph-name="multiply" unicode="&#xd7;" horiz-adv-x="470" 
d="M298 328l70 -70l-63 -65l-71 70l-70 -70l-64 64l70 70l-70 70l64 65l70 -71l71 71l63 -64z" />
    <glyph glyph-name="Oslash" unicode="&#xd8;" horiz-adv-x="413" 
d="M199 -12q-25 0 -41 4l-17 -61l-94 27l26 93q-28 46 -36.5 124.5t-8.5 191.5q0 96 9.5 167t31.5 118.5t58 71t89 23.5q25 0 48 -5l17 59l94 -25l-28 -99q24 -45 31 -118.5t7 -176.5q0 -100 -8 -174t-29 -123t-57 -73t-92 -24zM208 86q21 0 33.5 15.5t18.5 50t8 89t2 132.5
q0 76 -2 127.5t-8 83.5t-17.5 46t-30.5 14q-22 0 -35.5 -15t-20.5 -47.5t-9 -85t-2 -127.5q0 -77 1.5 -131t7.5 -88t18.5 -49t35.5 -15zM319 855l-169 -92l-34 51l145 123z" />
    <glyph glyph-name="Ugrave" unicode="&#xd9;" horiz-adv-x="413" 
d="M149 929l153 -114l-32 -53l-176 81zM270 734h109v-517q0 -49 -6.5 -91t-25.5 -72.5t-53.5 -48t-90.5 -17.5q-57 0 -91 18.5t-51 50.5t-22 74t-5 90v513h109v-497q0 -42 2.5 -71t9.5 -47t19.5 -26t32.5 -8t32.5 7.5t19 25t9 46t2.5 70.5v500z" />
    <glyph glyph-name="Uacute" unicode="&#xda;" horiz-adv-x="413" 
d="M324 843l-175 -80l-30 53l153 113zM270 734h109v-517q0 -49 -6.5 -91t-25.5 -72.5t-53.5 -48t-90.5 -17.5q-57 0 -91 18.5t-51 50.5t-22 74t-5 90v513h109v-497q0 -42 2.5 -71t9.5 -47t19.5 -26t32.5 -8t32.5 7.5t19 25t9 46t2.5 70.5v500z" />
    <glyph glyph-name="Ucircumflex" unicode="&#xdb;" horiz-adv-x="413" 
d="M270 734h109v-517q0 -49 -6.5 -91t-25.5 -72.5t-53.5 -48t-90.5 -17.5q-57 0 -91 18.5t-51 50.5t-22 74t-5 90v513h109v-497q0 -42 2.5 -71t9.5 -47t19.5 -26t32.5 -8t32.5 7.5t19 25t9 46t2.5 70.5v500zM240 914l110 -115l-35 -38l-106 71l-106 -71l-36 38l111 115h62z
" />
    <glyph glyph-name="Udieresis" unicode="&#xdc;" horiz-adv-x="413" 
d="M235 889h83v-109h-83v109zM102 889h83v-109h-83v109zM270 734h109v-517q0 -49 -6.5 -91t-25.5 -72.5t-53.5 -48t-90.5 -17.5q-57 0 -91 18.5t-51 50.5t-22 74t-5 90v513h109v-497q0 -42 2.5 -71t9.5 -47t19.5 -26t32.5 -8t32.5 7.5t19 25t9 46t2.5 70.5v500z" />
    <glyph glyph-name="Yacute" unicode="&#xdd;" horiz-adv-x="394" 
d="M254 0h-110v280l-147 454h121l81 -331h3l76 331h119l-143 -451v-283zM319 843l-175 -80l-30 53l153 113z" />
    <glyph glyph-name="Thorn" unicode="&#xde;" horiz-adv-x="394" 
d="M149 0h-112v734h112v-135h48q96 0 140.5 -53.5t44.5 -159.5q0 -54 -11 -98t-35.5 -75.5t-65 -49t-99.5 -17.5h-22v-146zM165 250q57 0 80 30.5t23 102.5q0 62 -21 86.5t-63 24.5h-35v-244h16z" />
    <glyph glyph-name="germandbls" unicode="&#xdf;" horiz-adv-x="436" 
d="M141 0h-104v505q0 126 51 184t149 58q45 0 76 -14t50 -38t27 -56t8 -67t-8 -71.5t-21 -69.5q-6 2 -13.5 3t-14.5 1q-24 0 -42.5 -13t-18.5 -44q0 -17 5 -30t14 -24t20.5 -20t23.5 -19q15 -11 30 -24t27 -30t19.5 -39.5t7.5 -52.5q0 -27 -7.5 -54t-24 -48.5t-43 -35
t-63.5 -13.5q-41 0 -71.5 10.5t-45.5 21.5l13 85q4 -3 12 -8t19.5 -10t25 -8.5t28.5 -3.5q24 0 39.5 15t15.5 45q0 18 -6 31.5t-16 24t-23 19.5t-26 19q-14 10 -27 23t-23.5 29.5t-17 37.5t-6.5 48q0 59 31 93t79 41q5 17 7.5 35t2.5 36q0 35 -15 61t-53 26q-53 0 -72 -39.5
t-19 -122.5v-497z" />
    <glyph glyph-name="agrave" unicode="&#xe0;" horiz-adv-x="352" 
d="M344 3q-20 -9 -47 -9q-25 0 -46.5 12t-27.5 43q-8 -24 -31 -42.5t-62 -18.5q-34 0 -56.5 12t-35.5 32t-18.5 44.5t-5.5 50.5q0 46 14 76.5t39.5 50t60.5 30t78 16.5v55q0 45 -11 64.5t-35 19.5t-33 -16t-9 -39q0 -11 2 -22.5t4 -22.5l-95 -11q-6 30 -6 57
q0 65 35.5 107.5t109.5 42.5q54 0 83 -18.5t43 -49.5t16.5 -70t2.5 -81v-203q0 -17 3 -25t14 -8q3 0 5.5 0.5t6.5 1.5zM159 77q24 0 35.5 17t11.5 42v82q-51 -4 -71.5 -21t-20.5 -58q0 -22 9.5 -42t35.5 -20zM133 764l96 -161l-47 -37l-131 136z" />
    <glyph glyph-name="aacute" unicode="&#xe1;" horiz-adv-x="352" 
d="M344 3q-20 -9 -47 -9q-25 0 -46.5 12t-27.5 43q-8 -24 -31 -42.5t-62 -18.5q-34 0 -56.5 12t-35.5 32t-18.5 44.5t-5.5 50.5q0 46 14 76.5t39.5 50t60.5 30t78 16.5v55q0 45 -11 64.5t-35 19.5t-33 -16t-9 -39q0 -11 2 -22.5t4 -22.5l-95 -11q-6 30 -6 57
q0 65 35.5 107.5t109.5 42.5q54 0 83 -18.5t43 -49.5t16.5 -70t2.5 -81v-203q0 -17 3 -25t14 -8q3 0 5.5 0.5t6.5 1.5zM159 77q24 0 35.5 17t11.5 42v82q-51 -4 -71.5 -21t-20.5 -58q0 -22 9.5 -42t35.5 -20zM285 703l-125 -137l-49 37l97 161z" />
    <glyph glyph-name="acircumflex" unicode="&#xe2;" horiz-adv-x="352" 
d="M344 3q-20 -9 -47 -9q-25 0 -46.5 12t-27.5 43q-8 -24 -31 -42.5t-62 -18.5q-34 0 -56.5 12t-35.5 32t-18.5 44.5t-5.5 50.5q0 46 14 76.5t39.5 50t60.5 30t78 16.5v55q0 45 -11 64.5t-35 19.5t-33 -16t-9 -39q0 -11 2 -22.5t4 -22.5l-95 -11q-6 30 -6 57
q0 65 35.5 107.5t109.5 42.5q54 0 83 -18.5t43 -49.5t16.5 -70t2.5 -81v-203q0 -17 3 -25t14 -8q3 0 5.5 0.5t6.5 1.5zM159 77q24 0 35.5 17t11.5 42v82q-51 -4 -71.5 -21t-20.5 -58q0 -22 9.5 -42t35.5 -20zM201 743l91 -143l-47 -34l-75 84l-76 -84l-43 32l86 145h64z" />
    <glyph glyph-name="atilde" unicode="&#xe3;" horiz-adv-x="352" 
d="M344 3q-20 -9 -47 -9q-25 0 -46.5 12t-27.5 43q-8 -24 -31 -42.5t-62 -18.5q-34 0 -56.5 12t-35.5 32t-18.5 44.5t-5.5 50.5q0 46 14 76.5t39.5 50t60.5 30t78 16.5v55q0 45 -11 64.5t-35 19.5t-33 -16t-9 -39q0 -11 2 -22.5t4 -22.5l-95 -11q-6 30 -6 57
q0 65 35.5 107.5t109.5 42.5q54 0 83 -18.5t43 -49.5t16.5 -70t2.5 -81v-203q0 -17 3 -25t14 -8q3 0 5.5 0.5t6.5 1.5zM159 77q24 0 35.5 17t11.5 42v82q-51 -4 -71.5 -21t-20.5 -58q0 -22 9.5 -42t35.5 -20zM55 611q6 50 25.5 72.5t45.5 22.5q13 0 26.5 -4t25.5 -8.5t23 -8
t20 -3.5q10 0 16.5 5.5t10.5 22.5l53 -6q-5 -45 -22 -73.5t-52 -28.5q-14 0 -27 4t-25.5 9t-23.5 9t-20 4q-18 0 -25 -28z" />
    <glyph glyph-name="adieresis" unicode="&#xe4;" horiz-adv-x="352" 
d="M344 3q-20 -9 -47 -9q-25 0 -46.5 12t-27.5 43q-8 -24 -31 -42.5t-62 -18.5q-34 0 -56.5 12t-35.5 32t-18.5 44.5t-5.5 50.5q0 46 14 76.5t39.5 50t60.5 30t78 16.5v55q0 45 -11 64.5t-35 19.5t-33 -16t-9 -39q0 -11 2 -22.5t4 -22.5l-95 -11q-6 30 -6 57
q0 65 35.5 107.5t109.5 42.5q54 0 83 -18.5t43 -49.5t16.5 -70t2.5 -81v-203q0 -17 3 -25t14 -8q3 0 5.5 0.5t6.5 1.5zM159 77q24 0 35.5 17t11.5 42v82q-51 -4 -71.5 -21t-20.5 -58q0 -22 9.5 -42t35.5 -20zM196 714h82v-109h-82v109zM64 714h82v-109h-82v109z" />
    <glyph glyph-name="aring" unicode="&#xe5;" horiz-adv-x="352" 
d="M344 3q-20 -9 -47 -9q-25 0 -46.5 12t-27.5 43q-8 -24 -31 -42.5t-62 -18.5q-34 0 -56.5 12t-35.5 32t-18.5 44.5t-5.5 50.5q0 46 14 76.5t39.5 50t60.5 30t78 16.5v55q0 45 -11 64.5t-35 19.5t-33 -16t-9 -39q0 -11 2 -22.5t4 -22.5l-95 -11q-6 30 -6 57
q0 65 35.5 107.5t109.5 42.5q54 0 83 -18.5t43 -49.5t16.5 -70t2.5 -81v-203q0 -17 3 -25t14 -8q3 0 5.5 0.5t6.5 1.5zM159 77q24 0 35.5 17t11.5 42v82q-51 -4 -71.5 -21t-20.5 -58q0 -22 9.5 -42t35.5 -20zM174 577q-42 0 -64 24t-22 64q0 38 24.5 62.5t65.5 24.5
q42 0 64 -23.5t22 -61.5q0 -42 -23.5 -66t-66.5 -24zM175 622q29 0 29 43q0 40 -28 40q-14 0 -21.5 -9t-7.5 -32t7 -32.5t21 -9.5z" />
    <glyph glyph-name="ae" unicode="&#xe6;" horiz-adv-x="535" 
d="M508 188q0 -60 -11.5 -99t-31.5 -61.5t-46 -31t-54 -8.5q-51 0 -78 20.5t-41 54.5q-17 -38 -48 -56.5t-66 -18.5q-34 0 -56.5 12t-35.5 32t-18.5 44.5t-5.5 50.5q0 46 14 76.5t39.5 50t60.5 30t78 16.5v55q0 45 -11 64.5t-35 19.5q-18 0 -27 -9t-12.5 -23.5t-2 -32.5
t5.5 -35l-95 -11q-9 43 -5 81t21.5 66t48 44t74.5 16q40 0 63.5 -15.5t37.5 -38.5q35 54 106 54q40 0 68 -16t43.5 -51t19 -91t-3.5 -135h-190q-1 -8 -1 -20v-18q1 -58 10.5 -87.5t40.5 -29.5q28 0 37 24.5t8 81.5zM208 218q-51 -4 -71.5 -21t-20.5 -58q0 -22 9.5 -42
t35.5 -20q24 0 35.5 17t11.5 42v82zM366 436q-32 0 -42 -32.5t-11 -85.5v-3h95q2 61 -5.5 91t-36.5 30z" />
    <glyph glyph-name="ccedilla" unicode="&#xe7;" horiz-adv-x="351" 
d="M152 -9q-41 6 -65.5 28.5t-38 58t-18 81t-4.5 98.5q0 135 40 206.5t131 71.5q81 0 110 -52t25 -149l-99 -7q2 60 -7 84t-35 24q-32 0 -43.5 -38.5t-11.5 -132.5q0 -48 1.5 -82t7 -55t16 -30.5t27.5 -9.5q23 0 34 25t12 81l97 -7q-1 -57 -12 -94t-29.5 -59.5t-42 -32.5
t-50.5 -11l-17 -39l1 -1q5 3 13 5.5t19 2.5q30 0 46 -21.5t16 -54.5q0 -25 -8 -43t-21 -30t-29.5 -17.5t-34.5 -5.5q-32 0 -54.5 16.5t-33.5 48.5l47 22q13 -34 37 -34q13 0 21 9.5t8 30.5q0 37 -26 37q-15 0 -25 -13l-32 17z" />
    <glyph glyph-name="egrave" unicode="&#xe8;" horiz-adv-x="348" 
d="M326 188q0 -60 -11.5 -99t-31.5 -61.5t-46 -31t-54 -8.5q-54 0 -85.5 20t-48.5 56t-22 85.5t-5 108.5q0 129 40 203t129 74q71 0 103.5 -45.5t32.5 -151.5q0 -21 -1.5 -45t-3.5 -51h-190q0 -78 8 -116.5t43 -38.5q28 0 36.5 24.5t8.5 81.5zM226 315q1 10 1 18.5v16.5
q0 44 -9 65t-33 21q-32 0 -42.5 -33.5t-11.5 -87.5h95zM164 764l96 -161l-47 -37l-131 136z" />
    <glyph glyph-name="eacute" unicode="&#xe9;" horiz-adv-x="348" 
d="M298 703l-125 -137l-49 37l97 161zM326 188q0 -60 -11.5 -99t-31.5 -61.5t-46 -31t-54 -8.5q-54 0 -85.5 20t-48.5 56t-22 85.5t-5 108.5q0 129 40 203t129 74q71 0 103.5 -45.5t32.5 -151.5q0 -21 -1.5 -45t-3.5 -51h-190q0 -78 8 -116.5t43 -38.5q28 0 36.5 24.5
t8.5 81.5zM226 315q1 10 1 18.5v16.5q0 44 -9 65t-33 21q-32 0 -42.5 -33.5t-11.5 -87.5h95z" />
    <glyph glyph-name="ecircumflex" unicode="&#xea;" horiz-adv-x="348" 
d="M221 743l91 -143l-47 -34l-75 84l-76 -84l-43 32l86 145h64zM326 188q0 -60 -11.5 -99t-31.5 -61.5t-46 -31t-54 -8.5q-54 0 -85.5 20t-48.5 56t-22 85.5t-5 108.5q0 129 40 203t129 74q71 0 103.5 -45.5t32.5 -151.5q0 -21 -1.5 -45t-3.5 -51h-190q0 -78 8 -116.5
t43 -38.5q28 0 36.5 24.5t8.5 81.5zM226 315q1 10 1 18.5v16.5q0 44 -9 65t-33 21q-32 0 -42.5 -33.5t-11.5 -87.5h95z" />
    <glyph glyph-name="edieresis" unicode="&#xeb;" horiz-adv-x="348" 
d="M215 714h82v-109h-82v109zM83 714h82v-109h-82v109zM326 188q0 -60 -11.5 -99t-31.5 -61.5t-46 -31t-54 -8.5q-54 0 -85.5 20t-48.5 56t-22 85.5t-5 108.5q0 129 40 203t129 74q71 0 103.5 -45.5t32.5 -151.5q0 -21 -1.5 -45t-3.5 -51h-190q0 -78 8 -116.5t43 -38.5
q28 0 36.5 24.5t8.5 81.5zM226 315q1 10 1 18.5v16.5q0 44 -9 65t-33 21q-32 0 -42.5 -33.5t-11.5 -87.5h95z" />
    <glyph glyph-name="igrave" unicode="&#xec;" horiz-adv-x="181" 
d="M39 523h106v-523h-106v523zM66 764l96 -161l-47 -37l-131 136z" />
    <glyph glyph-name="iacute" unicode="&#xed;" horiz-adv-x="181" 
d="M200 703l-125 -137l-49 37l97 161zM39 523h106v-523h-106v523z" />
    <glyph glyph-name="icircumflex" unicode="&#xee;" horiz-adv-x="181" 
d="M123 743l91 -143l-47 -34l-75 84l-76 -84l-43 32l86 145h64zM39 523h106v-523h-106v523z" />
    <glyph glyph-name="idieresis" unicode="&#xef;" horiz-adv-x="181" 
d="M117 714h82v-109h-82v109zM-15 714h82v-109h-82v109zM39 523h106v-523h-106v523z" />
    <glyph glyph-name="eth" unicode="&#xf0;" horiz-adv-x="355" 
d="M255 639q38 -79 58.5 -166.5t20.5 -199.5q0 -145 -36 -215t-125 -70q-43 0 -72 16t-46.5 49t-25 84.5t-7.5 123.5q0 55 6 104t21 85t40.5 57t64.5 21q16 0 36.5 -8t40.5 -34l2 2q-11 27 -27 59.5t-36 65.5l-92 -27l-20 69l73 21q-10 15 -19.5 28.5t-18.5 25.5l100 16
l14 -22t13 -22l85 25l21 -67zM179 86q33 0 39.5 43t6.5 139q0 40 -0.5 71t-5 52.5t-14 32.5t-26.5 11q-33 0 -40 -41t-7 -131q0 -45 1 -78.5t5.5 -55.5t14 -32.5t26.5 -10.5z" />
    <glyph glyph-name="ntilde" unicode="&#xf1;" horiz-adv-x="373" 
d="M339 0h-105v363q0 32 -6 51.5t-31 19.5q-18 0 -29 -9.5t-16.5 -25.5t-7.5 -37.5t-2 -44.5v-317h-105v523h93l3 -67h2q3 9 9 22.5t17 26t29.5 21.5t46.5 9q30 0 50 -10.5t31.5 -29t16 -45t4.5 -57.5v-393zM68 611q6 50 25.5 72.5t45.5 22.5q13 0 26.5 -4t25.5 -8.5t23 -8
t20 -3.5q10 0 16.5 5.5t10.5 22.5l53 -6q-5 -45 -22 -73.5t-52 -28.5q-14 0 -27 4t-25.5 9t-23.5 9t-20 4q-18 0 -25 -28z" />
    <glyph glyph-name="ograve" unicode="&#xf2;" horiz-adv-x="355" 
d="M173 -12q-43 0 -72 16.5t-46.5 50t-25 85t-7.5 121.5q0 140 39 207t125 67q45 0 73.5 -16.5t45 -49.5t23 -82.5t6.5 -115.5q0 -143 -36 -213t-125 -70zM179 86q17 0 26 10.5t13.5 32.5t5 56.5t0.5 82.5q0 45 -1 76.5t-5.5 51.5t-13 29.5t-24.5 9.5q-33 0 -40.5 -41
t-7.5 -131q0 -45 1 -78.5t5.5 -55.5t14 -32.5t26.5 -10.5zM159 764l96 -161l-47 -37l-131 136z" />
    <glyph glyph-name="oacute" unicode="&#xf3;" horiz-adv-x="355" 
d="M293 703l-125 -137l-49 37l97 161zM173 -12q-43 0 -72 16.5t-46.5 50t-25 85t-7.5 121.5q0 140 39 207t125 67q45 0 73.5 -16.5t45 -49.5t23 -82.5t6.5 -115.5q0 -143 -36 -213t-125 -70zM179 86q17 0 26 10.5t13.5 32.5t5 56.5t0.5 82.5q0 45 -1 76.5t-5.5 51.5
t-13 29.5t-24.5 9.5q-33 0 -40.5 -41t-7.5 -131q0 -45 1 -78.5t5.5 -55.5t14 -32.5t26.5 -10.5z" />
    <glyph glyph-name="ocircumflex" unicode="&#xf4;" horiz-adv-x="355" 
d="M216 743l91 -143l-47 -34l-75 84l-76 -84l-43 32l86 145h64zM173 -12q-43 0 -72 16.5t-46.5 50t-25 85t-7.5 121.5q0 140 39 207t125 67q45 0 73.5 -16.5t45 -49.5t23 -82.5t6.5 -115.5q0 -143 -36 -213t-125 -70zM179 86q17 0 26 10.5t13.5 32.5t5 56.5t0.5 82.5
q0 45 -1 76.5t-5.5 51.5t-13 29.5t-24.5 9.5q-33 0 -40.5 -41t-7.5 -131q0 -45 1 -78.5t5.5 -55.5t14 -32.5t26.5 -10.5z" />
    <glyph glyph-name="otilde" unicode="&#xf5;" horiz-adv-x="355" 
d="M173 -12q-43 0 -72 16.5t-46.5 50t-25 85t-7.5 121.5q0 140 39 207t125 67q45 0 73.5 -16.5t45 -49.5t23 -82.5t6.5 -115.5q0 -143 -36 -213t-125 -70zM179 86q17 0 26 10.5t13.5 32.5t5 56.5t0.5 82.5q0 45 -1 76.5t-5.5 51.5t-13 29.5t-24.5 9.5q-33 0 -40.5 -41
t-7.5 -131q0 -45 1 -78.5t5.5 -55.5t14 -32.5t26.5 -10.5zM63 611q6 50 25.5 72.5t45.5 22.5q13 0 26.5 -4t25.5 -8.5t23 -8t20 -3.5q10 0 16.5 5.5t10.5 22.5l53 -6q-5 -45 -22 -73.5t-52 -28.5q-14 0 -27 4t-25.5 9t-23.5 9t-20 4q-18 0 -25 -28z" />
    <glyph glyph-name="odieresis" unicode="&#xf6;" horiz-adv-x="355" 
d="M210 714h82v-109h-82v109zM78 714h82v-109h-82v109zM173 -12q-43 0 -72 16.5t-46.5 50t-25 85t-7.5 121.5q0 140 39 207t125 67q45 0 73.5 -16.5t45 -49.5t23 -82.5t6.5 -115.5q0 -143 -36 -213t-125 -70zM179 86q17 0 26 10.5t13.5 32.5t5 56.5t0.5 82.5q0 45 -1 76.5
t-5.5 51.5t-13 29.5t-24.5 9.5q-33 0 -40.5 -41t-7.5 -131q0 -45 1 -78.5t5.5 -55.5t14 -32.5t26.5 -10.5z" />
    <glyph glyph-name="divide" unicode="&#xf7;" 
d="M65 282v91h289v-91h-289zM163 522h98v-116h-98v116zM163 249h98v-116h-98v116z" />
    <glyph glyph-name="oslash" unicode="&#xf8;" horiz-adv-x="363" 
d="M177 -12q-8 0 -15.5 0.5t-14.5 1.5l-16 -56l-79 24l21 72q-26 32 -36.5 89t-10.5 142q0 140 39.5 207t125.5 67q17 0 31 -3l17 56l79 -23l-22 -75q24 -32 33 -86.5t9 -132.5q0 -143 -36 -213t-125 -70zM136 263q0 -45 1 -78.5t5.5 -55.5t14 -32.5t26.5 -10.5t26 10.5
t13.5 32.5t5 56.5t0.5 82.5q0 45 -1 76.5t-5.5 51.5t-13 29.5t-24.5 9.5q-33 0 -40.5 -41t-7.5 -131z" />
    <glyph glyph-name="ugrave" unicode="&#xf9;" horiz-adv-x="369" 
d="M35 523h104v-359q0 -35 6.5 -55t32.5 -20q17 0 27.5 10t16 26.5t7 38t1.5 44.5v315h105v-523h-92l-3 66h-3q-3 -10 -9 -23.5t-17 -25.5t-29 -20.5t-46 -8.5q-31 0 -50.5 10t-31 29t-15.5 45t-4 58v393zM163 764l96 -161l-47 -37l-131 136z" />
    <glyph glyph-name="uacute" unicode="&#xfa;" horiz-adv-x="369" 
d="M297 703l-125 -137l-49 37l97 161zM35 523h104v-359q0 -35 6.5 -55t32.5 -20q17 0 27.5 10t16 26.5t7 38t1.5 44.5v315h105v-523h-92l-3 66h-3q-3 -10 -9 -23.5t-17 -25.5t-29 -20.5t-46 -8.5q-31 0 -50.5 10t-31 29t-15.5 45t-4 58v393z" />
    <glyph glyph-name="ucircumflex" unicode="&#xfb;" horiz-adv-x="369" 
d="M220 743l91 -143l-47 -34l-75 84l-76 -84l-43 32l86 145h64zM35 523h104v-359q0 -35 6.5 -55t32.5 -20q17 0 27.5 10t16 26.5t7 38t1.5 44.5v315h105v-523h-92l-3 66h-3q-3 -10 -9 -23.5t-17 -25.5t-29 -20.5t-46 -8.5q-31 0 -50.5 10t-31 29t-15.5 45t-4 58v393z" />
    <glyph glyph-name="udieresis" unicode="&#xfc;" horiz-adv-x="369" 
d="M214 714h82v-109h-82v109zM82 714h82v-109h-82v109zM35 523h104v-359q0 -35 6.5 -55t32.5 -20q17 0 27.5 10t16 26.5t7 38t1.5 44.5v315h105v-523h-92l-3 66h-3q-3 -10 -9 -23.5t-17 -25.5t-29 -20.5t-46 -8.5q-31 0 -50.5 10t-31 29t-15.5 45t-4 58v393z" />
    <glyph glyph-name="yacute" unicode="&#xfd;" horiz-adv-x="341" 
d="M215 -32q-11 -48 -25.5 -79.5t-33.5 -50t-42.5 -26t-52.5 -7.5q-17 0 -34.5 4t-25.5 9l9 82q24 -8 41 -8q15 0 25 4t17.5 14t12.5 27t10 43l6 32l-125 511h121l54 -386h5l54 386h115zM282 703l-125 -137l-49 37l97 161z" />
    <glyph glyph-name="thorn" unicode="&#xfe;" horiz-adv-x="374" 
d="M231 535q26 0 47.5 -11t36.5 -39.5t23.5 -79.5t8.5 -130q0 -83 -8.5 -138t-25 -88t-40 -47t-53.5 -14q-32 0 -50 15.5t-26 34.5h-2v-221h-104v917h98v-272h2q9 29 31 51t62 22zM191 432q-13 0 -22.5 -8.5t-16 -28t-9.5 -51t-3 -78.5q0 -54 2.5 -88.5t8.5 -54t15.5 -27
t23.5 -7.5q16 0 25 9.5t14 31.5t6.5 57t1.5 85t-2.5 81.5t-8 49t-14.5 23.5t-21 6z" />
    <glyph glyph-name="ydieresis" unicode="&#xff;" horiz-adv-x="341" 
d="M215 -32q-11 -48 -25.5 -79.5t-33.5 -50t-42.5 -26t-52.5 -7.5q-17 0 -34.5 4t-25.5 9l9 82q24 -8 41 -8q15 0 25 4t17.5 14t12.5 27t10 43l6 32l-125 511h121l54 -386h5l54 386h115zM199 714h82v-109h-82v109zM67 714h82v-109h-82v109z" />
    <glyph glyph-name="Amacron" unicode="&#x100;" horiz-adv-x="426" 
d="M286 734l134 -734h-121l-28 179h-122l-27 -179h-116l128 734h152zM213 604h-5l-48 -323h98zM94 872h234v-80h-234v80z" />
    <glyph glyph-name="amacron" unicode="&#x101;" horiz-adv-x="352" 
d="M344 3q-20 -9 -47 -9q-25 0 -46.5 12t-27.5 43q-8 -24 -31 -42.5t-62 -18.5q-34 0 -56.5 12t-35.5 32t-18.5 44.5t-5.5 50.5q0 46 14 76.5t39.5 50t60.5 30t78 16.5v55q0 45 -11 64.5t-35 19.5t-33 -16t-9 -39q0 -11 2 -22.5t4 -22.5l-95 -11q-6 30 -6 57
q0 65 35.5 107.5t109.5 42.5q54 0 83 -18.5t43 -49.5t16.5 -70t2.5 -81v-203q0 -17 3 -25t14 -8q3 0 5.5 0.5t6.5 1.5zM159 77q24 0 35.5 17t11.5 42v82q-51 -4 -71.5 -21t-20.5 -58q0 -22 9.5 -42t35.5 -20zM55 690h232v-80h-232v80z" />
    <glyph glyph-name="Abreve" unicode="&#x102;" horiz-adv-x="426" 
d="M286 734l134 -734h-121l-28 179h-122l-27 -179h-116l128 734h152zM213 604h-5l-48 -323h98zM148 902q6 -59 62 -59q23 0 40.5 10.5t25.5 47.5l57 -11q-3 -54 -37 -88.5t-88 -34.5q-25 0 -47.5 8.5t-39 25t-26 39.5t-9.5 53z" />
    <glyph glyph-name="abreve" unicode="&#x103;" horiz-adv-x="352" 
d="M344 3q-20 -9 -47 -9q-25 0 -46.5 12t-27.5 43q-8 -24 -31 -42.5t-62 -18.5q-34 0 -56.5 12t-35.5 32t-18.5 44.5t-5.5 50.5q0 46 14 76.5t39.5 50t60.5 30t78 16.5v55q0 45 -11 64.5t-35 19.5t-33 -16t-9 -39q0 -11 2 -22.5t4 -22.5l-95 -11q-6 30 -6 57
q0 65 35.5 107.5t109.5 42.5q54 0 83 -18.5t43 -49.5t16.5 -70t2.5 -81v-203q0 -17 3 -25t14 -8q3 0 5.5 0.5t6.5 1.5zM159 77q24 0 35.5 17t11.5 42v82q-51 -4 -71.5 -21t-20.5 -58q0 -22 9.5 -42t35.5 -20zM117 728q5 -43 21.5 -58.5t39.5 -15.5q19 0 36.5 15t25.5 59
l56 -7q-4 -70 -37.5 -105.5t-85.5 -35.5q-49 0 -82 35t-35 105z" />
    <glyph glyph-name="Aogonek" unicode="&#x104;" horiz-adv-x="426" 
d="M286 734l134 -734h-25q-19 -23 -34.5 -51t-15.5 -51q0 -24 20 -24q9 0 16.5 6t15.5 18l43 -34q-15 -27 -40 -43t-57 -16q-31 0 -52.5 16.5t-21.5 51.5q0 20 6.5 38t17 34t23 29.5t24.5 25.5h-41l-28 179h-122l-27 -179h-116l128 734h152zM213 604h-5l-48 -323h98z" />
    <glyph glyph-name="aogonek" unicode="&#x105;" horiz-adv-x="352" 
d="M344 3q-21 -5 -37 -17t-26.5 -27t-15.5 -31.5t-5 -29.5q0 -24 20 -24q9 0 16.5 6t15.5 18l43 -34q-15 -27 -40 -43t-57 -16q-31 0 -52.5 16.5t-21.5 51.5q0 20 7 38.5t17.5 34.5t23.5 30t25 26q-12 6 -21.5 17.5t-12.5 29.5q-8 -24 -31 -42.5t-62 -18.5q-34 0 -56.5 12
t-35.5 32t-18.5 44.5t-5.5 50.5q0 46 14 76.5t39.5 50t60.5 30t78 16.5v55q0 45 -11 64.5t-35 19.5t-33 -16t-9 -39q0 -11 2 -22.5t4 -22.5l-95 -11q-6 30 -6 57q0 65 35.5 107.5t109.5 42.5q54 0 83 -18.5t43 -49.5t16.5 -70t2.5 -81v-203q0 -17 3 -25t14 -8q3 0 5.5 0.5
t6.5 1.5zM159 77q24 0 35.5 17t11.5 42v82q-51 -4 -71.5 -21t-20.5 -58q0 -22 9.5 -42t35.5 -20z" />
    <glyph glyph-name="Cacute" unicode="&#x106;" horiz-adv-x="409" 
d="M214 82q19 0 30.5 12t17.5 34.5t8 54.5t2 73l107 -7q0 -72 -9 -121.5t-30 -80.5t-54 -45t-80 -14q-57 0 -92 23.5t-54 70t-25.5 117t-6.5 165.5q0 94 10 166t33 120t61.5 72.5t94.5 24.5q48 0 79 -17t49 -50.5t24.5 -84t5.5 -116.5l-107 -9q0 50 -2 84t-8.5 54.5
t-18 29.5t-29.5 9q-23 0 -37 -15.5t-22.5 -49.5t-11.5 -87t-3 -129q0 -80 1.5 -134t8.5 -87.5t20.5 -48t37.5 -14.5zM338 843l-175 -80l-30 53l153 113z" />
    <glyph glyph-name="cacute" unicode="&#x107;" horiz-adv-x="351" 
d="M291 703l-125 -137l-49 37l97 161zM233 327q2 60 -7 84t-35 24q-32 0 -43.5 -38.5t-11.5 -132.5q0 -48 1.5 -82t7 -55t16 -30.5t27.5 -9.5q23 0 34 25t12 81l97 -7q-1 -60 -13.5 -98.5t-32.5 -60.5t-46 -30.5t-54 -8.5q-52 0 -83 20.5t-48 56.5t-22.5 85t-5.5 107
q0 135 40 206.5t131 71.5q81 0 110 -52t25 -149z" />
    <glyph glyph-name="Ccircumflex" unicode="&#x108;" horiz-adv-x="409" 
d="M214 82q19 0 30.5 12t17.5 34.5t8 54.5t2 73l107 -7q0 -72 -9 -121.5t-30 -80.5t-54 -45t-80 -14q-57 0 -92 23.5t-54 70t-25.5 117t-6.5 165.5q0 94 10 166t33 120t61.5 72.5t94.5 24.5q48 0 79 -17t49 -50.5t24.5 -84t5.5 -116.5l-107 -9q0 50 -2 84t-8.5 54.5
t-18 29.5t-29.5 9q-23 0 -37 -15.5t-22.5 -49.5t-11.5 -87t-3 -129q0 -80 1.5 -134t8.5 -87.5t20.5 -48t37.5 -14.5zM254 914l110 -115l-35 -38l-106 71l-106 -71l-36 38l111 115h62z" />
    <glyph glyph-name="ccircumflex" unicode="&#x109;" horiz-adv-x="351" 
d="M218 743l91 -143l-47 -34l-75 84l-76 -84l-43 32l86 145h64zM233 327q2 60 -7 84t-35 24q-32 0 -43.5 -38.5t-11.5 -132.5q0 -48 1.5 -82t7 -55t16 -30.5t27.5 -9.5q23 0 34 25t12 81l97 -7q-1 -60 -13.5 -98.5t-32.5 -60.5t-46 -30.5t-54 -8.5q-52 0 -83 20.5t-48 56.5
t-22.5 85t-5.5 107q0 135 40 206.5t131 71.5q81 0 110 -52t25 -149z" />
    <glyph glyph-name="Cdotaccent" unicode="&#x10a;" horiz-adv-x="403" 
d="M170 906h107v-131h-107v131zM214 82q19 0 30.5 12t17.5 34.5t8 54.5t2 73l107 -7q0 -72 -9 -121.5t-30 -80.5t-54 -45t-80 -14q-57 0 -92 23.5t-54 70t-25.5 117t-6.5 165.5q0 94 10 166t33 120t61.5 72.5t94.5 24.5q48 0 79 -17t49 -50.5t24.5 -84t5.5 -116.5l-107 -9
q0 50 -2 84t-8.5 54.5t-18 29.5t-29.5 9q-23 0 -37 -15.5t-22.5 -49.5t-11.5 -87t-3 -129q0 -80 1.5 -134t8.5 -87.5t20.5 -48t37.5 -14.5z" />
    <glyph glyph-name="cdotaccent" unicode="&#x10b;" horiz-adv-x="351" 
d="M233 327q2 60 -7 84t-35 24q-32 0 -43.5 -38.5t-11.5 -132.5q0 -48 1.5 -82t7 -55t16 -30.5t27.5 -9.5q23 0 34 25t12 81l97 -7q-1 -60 -13.5 -98.5t-32.5 -60.5t-46 -30.5t-54 -8.5q-52 0 -83 20.5t-48 56.5t-22.5 85t-5.5 107q0 135 40 206.5t131 71.5q81 0 110 -52
t25 -149zM134 734h104v-132h-104v132z" />
    <glyph glyph-name="Ccaron" unicode="&#x10c;" horiz-adv-x="409" 
d="M214 82q19 0 30.5 12t17.5 34.5t8 54.5t2 73l107 -7q0 -72 -9 -121.5t-30 -80.5t-54 -45t-80 -14q-57 0 -92 23.5t-54 70t-25.5 117t-6.5 165.5q0 94 10 166t33 120t61.5 72.5t94.5 24.5q48 0 79 -17t49 -50.5t24.5 -84t5.5 -116.5l-107 -9q0 50 -2 84t-8.5 54.5
t-18 29.5t-29.5 9q-23 0 -37 -15.5t-22.5 -49.5t-11.5 -87t-3 -129q0 -80 1.5 -134t8.5 -87.5t20.5 -48t37.5 -14.5zM194 774l-107 107l35 39l101 -65l102 65l35 -39l-106 -107h-60z" />
    <glyph glyph-name="ccaron" unicode="&#x10d;" horiz-adv-x="351" 
d="M156 573l-87 145l43 32l74 -84l78 84l43 -32l-91 -145h-60zM233 327q2 60 -7 84t-35 24q-32 0 -43.5 -38.5t-11.5 -132.5q0 -48 1.5 -82t7 -55t16 -30.5t27.5 -9.5q23 0 34 25t12 81l97 -7q-1 -60 -13.5 -98.5t-32.5 -60.5t-46 -30.5t-54 -8.5q-52 0 -83 20.5t-48 56.5
t-22.5 85t-5.5 107q0 135 40 206.5t131 71.5q81 0 110 -52t25 -149z" />
    <glyph glyph-name="Dcaron" unicode="&#x10e;" horiz-adv-x="421" 
d="M143 762l-107 107l35 39l101 -65l102 65l35 -39l-106 -107h-60zM37 0v734h116q75 0 122 -21t73.5 -64.5t36 -110.5t9.5 -160q0 -100 -9.5 -171.5t-36.5 -117.5t-75.5 -67.5t-125.5 -21.5h-110zM166 98q37 0 58.5 13t33 44.5t15 84.5t3.5 133q0 76 -4 126.5t-15.5 81
t-33 43.5t-56.5 13h-18v-539h17z" />
    <glyph glyph-name="dcaron" unicode="&#x10f;" horiz-adv-x="408" 
d="M468 734l-42 -197l-58 4v193h100zM332 734v-734h-89l-9 57h-2q-9 -26 -30.5 -47.5t-53.5 -21.5q-34 0 -58 13.5t-39 44.5t-21.5 80t-6.5 121q0 78 7.5 132.5t22.5 89t38.5 50.5t55.5 16t49 -17t28 -39h4v255h104zM231 257q0 50 -2.5 83.5t-8.5 54t-15 29t-22 8.5
q-15 0 -24.5 -9t-15 -30.5t-8 -57t-2.5 -87.5q0 -47 2.5 -77.5t8 -48t14.5 -24t22 -6.5q30 0 40.5 38t10.5 127z" />
    <glyph glyph-name="Dcroat" unicode="&#x110;" horiz-adv-x="443" 
d="M58 0v325h-47v94h47v315h115q75 0 122.5 -21t74 -64.5t36 -110.5t9.5 -160q0 -100 -9.5 -171.5t-36.5 -117.5t-75.5 -67.5t-125.5 -21.5h-110zM187 98q37 0 58.5 13t33 44.5t15 84.5t3.5 133q0 76 -4 126.5t-15.5 81t-33 43.5t-56.5 13h-19v-218h74v-94h-74v-227h18z" />
    <glyph glyph-name="dcroat" unicode="&#x111;" horiz-adv-x="365" 
d="M332 734v-65h42v-82h-42v-587h-89l-9 57h-2q-9 -26 -30.5 -47.5t-53.5 -21.5q-34 0 -58 13.5t-39 44.5t-21.5 80t-6.5 121q0 78 7.5 132.5t22.5 89t38.5 50.5t55.5 16t49 -17t28 -39h4v108h-100v82h100v65h104zM231 257q0 50 -2.5 83.5t-8.5 54t-15 29t-22 8.5
q-15 0 -24.5 -9t-15 -30.5t-8 -57t-2.5 -87.5q0 -47 2.5 -77.5t8 -48t14.5 -24t22 -6.5q30 0 40.5 38t10.5 127z" />
    <glyph glyph-name="Emacron" unicode="&#x112;" horiz-adv-x="362" 
d="M61 872h234v-80h-234v80zM312 324h-164v-220h202v-104h-313v734h293v-104h-182v-204h164v-102z" />
    <glyph glyph-name="emacron" unicode="&#x113;" horiz-adv-x="348" 
d="M326 188q0 -60 -11.5 -99t-31.5 -61.5t-46 -31t-54 -8.5q-54 0 -85.5 20t-48.5 56t-22 85.5t-5 108.5q0 129 40 203t129 74q71 0 103.5 -45.5t32.5 -151.5q0 -21 -1.5 -45t-3.5 -51h-190q0 -78 8 -116.5t43 -38.5q28 0 36.5 24.5t8.5 81.5zM226 315q1 10 1 18.5v16.5
q0 44 -9 65t-33 21q-32 0 -42.5 -33.5t-11.5 -87.5h95zM66 690h232v-80h-232v80z" />
    <glyph glyph-name="Ebreve" unicode="&#x114;" horiz-adv-x="362" 
d="M128 902q6 -59 62 -59q23 0 40.5 10.5t25.5 47.5l57 -11q-3 -54 -37 -88.5t-88 -34.5q-25 0 -47.5 8.5t-39 25t-26 39.5t-9.5 53zM312 324h-164v-220h202v-104h-313v734h293v-104h-182v-204h164v-102z" />
    <glyph glyph-name="ebreve" unicode="&#x115;" horiz-adv-x="348" 
d="M326 188q0 -60 -11.5 -99t-31.5 -61.5t-46 -31t-54 -8.5q-54 0 -85.5 20t-48.5 56t-22 85.5t-5 108.5q0 129 40 203t129 74q71 0 103.5 -45.5t32.5 -151.5q0 -21 -1.5 -45t-3.5 -51h-190q0 -78 8 -116.5t43 -38.5q28 0 36.5 24.5t8.5 81.5zM226 315q1 10 1 18.5v16.5
q0 44 -9 65t-33 21q-32 0 -42.5 -33.5t-11.5 -87.5h95zM120 728q5 -43 21.5 -58.5t39.5 -15.5q19 0 36.5 15t25.5 59l56 -7q-4 -70 -37.5 -105.5t-85.5 -35.5q-49 0 -82 35t-35 105z" />
    <glyph glyph-name="Edotaccent" unicode="&#x116;" horiz-adv-x="362" 
d="M127 906h107v-131h-107v131zM312 324h-164v-220h202v-104h-313v734h293v-104h-182v-204h164v-102z" />
    <glyph glyph-name="edotaccent" unicode="&#x117;" horiz-adv-x="348" 
d="M326 188q0 -60 -11.5 -99t-31.5 -61.5t-46 -31t-54 -8.5q-54 0 -85.5 20t-48.5 56t-22 85.5t-5 108.5q0 129 40 203t129 74q71 0 103.5 -45.5t32.5 -151.5q0 -21 -1.5 -45t-3.5 -51h-190q0 -78 8 -116.5t43 -38.5q28 0 36.5 24.5t8.5 81.5zM226 315q1 10 1 18.5v16.5
q0 44 -9 65t-33 21q-32 0 -42.5 -33.5t-11.5 -87.5h95zM132 734h104v-132h-104v132z" />
    <glyph glyph-name="Eogonek" unicode="&#x118;" horiz-adv-x="362" 
d="M312 324h-164v-220h202v-104h-30q-32 -28 -47.5 -55t-15.5 -46q0 -24 18 -24q19 0 33 24l42 -37q-15 -27 -40.5 -42t-57.5 -15t-53.5 16.5t-21.5 49.5q0 20 7.5 38.5t20.5 35t28.5 30.5t32.5 25h-229v734h293v-104h-182v-204h164v-102z" />
    <glyph glyph-name="eogonek" unicode="&#x119;" horiz-adv-x="348" 
d="M326 188q0 -65 -14.5 -102.5t-33.5 -63.5q-24 -32 -39.5 -65.5t-15.5 -57.5t18 -24q16 0 33 24l41 -37q-14 -27 -39.5 -42t-57.5 -15t-53.5 16.5t-21.5 49.5q0 17 6 34t14 32.5t17.5 28.5t17.5 23q-5 -1 -15 -1q-54 0 -85.5 20t-48.5 56t-22 85.5t-5 108.5q0 129 40 203
t129 74q71 0 103.5 -45.5t32.5 -151.5q0 -21 -1.5 -45t-3.5 -51h-190q0 -78 8 -116.5t43 -38.5q28 0 36.5 24.5t8.5 81.5zM226 315q1 10 1 18.5v16.5q0 44 -9 65t-33 21q-32 0 -42.5 -33.5t-11.5 -87.5h95z" />
    <glyph glyph-name="Ecaron" unicode="&#x11a;" horiz-adv-x="362" 
d="M154 762l-107 107l35 39l101 -65l102 65l35 -39l-106 -107h-60zM312 324h-164v-220h202v-104h-313v734h293v-104h-182v-204h164v-102z" />
    <glyph glyph-name="ecaron" unicode="&#x11b;" horiz-adv-x="348" 
d="M154 573l-87 145l43 32l74 -84l78 84l43 -32l-91 -145h-60zM326 188q0 -60 -11.5 -99t-31.5 -61.5t-46 -31t-54 -8.5q-54 0 -85.5 20t-48.5 56t-22 85.5t-5 108.5q0 129 40 203t129 74q71 0 103.5 -45.5t32.5 -151.5q0 -21 -1.5 -45t-3.5 -51h-190q0 -78 8 -116.5
t43 -38.5q28 0 36.5 24.5t8.5 81.5zM226 315q1 10 1 18.5v16.5q0 44 -9 65t-33 21q-32 0 -42.5 -33.5t-11.5 -87.5h95z" />
    <glyph glyph-name="Gcircumflex" unicode="&#x11c;" horiz-adv-x="422" 
d="M305 -4l-6 64q-19 -38 -47.5 -55t-62.5 -17q-49 0 -80 23t-49 69.5t-25 117t-7 165.5q0 93 10 165t33 120.5t62 73.5t96 25q48 0 79 -17.5t49 -52t24 -84.5t5 -114l-107 -9q0 51 -2.5 85t-8.5 54.5t-17.5 29t-30.5 8.5q-23 0 -37.5 -15.5t-22.5 -49t-11 -87.5t-3 -130
q0 -82 3.5 -136.5t12.5 -87t24 -46t38 -13.5q32 0 49.5 29.5t19.5 93.5v59h-73v97h172v-365h-87zM252 914l110 -115l-35 -38l-106 71l-106 -71l-36 38l111 115h62z" />
    <glyph glyph-name="gcircumflex" unicode="&#x11d;" horiz-adv-x="361" 
d="M211 743l91 -143l-47 -34l-75 84l-76 -84l-43 32l86 145h64zM329 523v-499q0 -49 -6.5 -89.5t-24 -69t-47 -44.5t-75.5 -16q-71 0 -107 40t-40 110l103 10q1 -33 11.5 -52.5t33.5 -19.5q13 0 22.5 4.5t15.5 16t9 31.5t3 51v80h-3q-4 -10 -10.5 -21.5t-17 -21t-24.5 -16
t-33 -6.5q-28 0 -50 12.5t-37.5 40t-23.5 73t-8 111.5q0 80 8 135t24 88.5t39 48.5t53 15q29 0 46.5 -15t31.5 -41h3l10 44h94zM228 262q0 52 -2.5 85t-8.5 52t-15 26t-22 7t-22.5 -7t-15.5 -26t-9 -51.5t-3 -83.5q0 -45 3 -74t9 -45.5t14.5 -23t19.5 -6.5q28 0 40 33.5
t12 113.5z" />
    <glyph glyph-name="Gbreve" unicode="&#x11e;" horiz-adv-x="422" 
d="M159 908q6 -59 62 -59q23 0 40.5 10.5t25.5 47.5l57 -11q-3 -54 -37 -88.5t-88 -34.5q-25 0 -47.5 8.5t-39 25t-26 39.5t-9.5 53zM305 -4l-6 64q-19 -38 -47.5 -55t-62.5 -17q-49 0 -80 23t-49 69.5t-25 117t-7 165.5q0 93 10 165t33 120.5t62 73.5t96 25q48 0 79 -17.5
t49 -52t24 -84.5t5 -114l-107 -9q0 51 -2.5 85t-8.5 54.5t-17.5 29t-30.5 8.5q-23 0 -37.5 -15.5t-22.5 -49t-11 -87.5t-3 -130q0 -82 3.5 -136.5t12.5 -87t24 -46t38 -13.5q32 0 49.5 29.5t19.5 93.5v59h-73v97h172v-365h-87z" />
    <glyph glyph-name="gbreve" unicode="&#x11f;" horiz-adv-x="361" 
d="M329 523v-499q0 -49 -6.5 -89.5t-24 -69t-47 -44.5t-75.5 -16q-71 0 -107 40t-40 110l103 10q1 -33 11.5 -52.5t33.5 -19.5q13 0 22.5 4.5t15.5 16t9 31.5t3 51v80h-3q-4 -10 -10.5 -21.5t-17 -21t-24.5 -16t-33 -6.5q-28 0 -50 12.5t-37.5 40t-23.5 73t-8 111.5
q0 80 8 135t24 88.5t39 48.5t53 15q29 0 46.5 -15t31.5 -41h3l10 44h94zM228 262q0 52 -2.5 85t-8.5 52t-15 26t-22 7t-22.5 -7t-15.5 -26t-9 -51.5t-3 -83.5q0 -45 3 -74t9 -45.5t14.5 -23t19.5 -6.5q28 0 40 33.5t12 113.5zM120 728q5 -43 21.5 -58.5t39.5 -15.5
q19 0 36.5 15t25.5 59l56 -7q-4 -70 -37.5 -105.5t-85.5 -35.5q-49 0 -82 35t-35 105z" />
    <glyph glyph-name="Gdotaccent" unicode="&#x120;" horiz-adv-x="422" 
d="M168 906h107v-131h-107v131zM305 -4l-6 64q-19 -38 -47.5 -55t-62.5 -17q-49 0 -80 23t-49 69.5t-25 117t-7 165.5q0 93 10 165t33 120.5t62 73.5t96 25q48 0 79 -17.5t49 -52t24 -84.5t5 -114l-107 -9q0 51 -2.5 85t-8.5 54.5t-17.5 29t-30.5 8.5q-23 0 -37.5 -15.5
t-22.5 -49t-11 -87.5t-3 -130q0 -82 3.5 -136.5t12.5 -87t24 -46t38 -13.5q32 0 49.5 29.5t19.5 93.5v59h-73v97h172v-365h-87z" />
    <glyph glyph-name="gdotaccent" unicode="&#x121;" horiz-adv-x="361" 
d="M329 523v-499q0 -49 -6.5 -89.5t-24 -69t-47 -44.5t-75.5 -16q-71 0 -107 40t-40 110l103 10q1 -33 11.5 -52.5t33.5 -19.5q13 0 22.5 4.5t15.5 16t9 31.5t3 51v80h-3q-4 -10 -10.5 -21.5t-17 -21t-24.5 -16t-33 -6.5q-28 0 -50 12.5t-37.5 40t-23.5 73t-8 111.5
q0 80 8 135t24 88.5t39 48.5t53 15q29 0 46.5 -15t31.5 -41h3l10 44h94zM228 262q0 52 -2.5 85t-8.5 52t-15 26t-22 7t-22.5 -7t-15.5 -26t-9 -51.5t-3 -83.5q0 -45 3 -74t9 -45.5t14.5 -23t19.5 -6.5q28 0 40 33.5t12 113.5zM127 734h104v-132h-104v132z" />
    <glyph glyph-name="Gcommaaccent" unicode="&#x122;" horiz-adv-x="422" 
d="M305 -4l-6 64q-19 -38 -47.5 -55t-62.5 -17q-49 0 -80 23t-49 69.5t-25 117t-7 165.5q0 93 10 165t33 120.5t62 73.5t96 25q48 0 79 -17.5t49 -52t24 -84.5t5 -114l-107 -9q0 51 -2.5 85t-8.5 54.5t-17.5 29t-30.5 8.5q-23 0 -37.5 -15.5t-22.5 -49t-11 -87.5t-3 -130
q0 -82 3.5 -136.5t12.5 -87t24 -46t38 -13.5q32 0 49.5 29.5t19.5 93.5v59h-73v97h172v-365h-87zM180 -46h93v-88l-41 -120l-46 12l24 88h-30v108z" />
    <glyph glyph-name="gcommaaccent" unicode="&#x123;" horiz-adv-x="361" 
d="M224 580h-93v88l42 120l45 -12l-24 -87h30v-109zM329 523v-499q0 -49 -6.5 -89.5t-24 -69t-47 -44.5t-75.5 -16q-71 0 -107 40t-40 110l103 10q1 -33 11.5 -52.5t33.5 -19.5q13 0 22.5 4.5t15.5 16t9 31.5t3 51v80h-3q-4 -10 -10.5 -21.5t-17 -21t-24.5 -16t-33 -6.5
q-28 0 -50 12.5t-37.5 40t-23.5 73t-8 111.5q0 80 8 135t24 88.5t39 48.5t53 15q29 0 46.5 -15t31.5 -41h3l10 44h94zM228 262q0 52 -2.5 85t-8.5 52t-15 26t-22 7t-22.5 -7t-15.5 -26t-9 -51.5t-3 -83.5q0 -45 3 -74t9 -45.5t14.5 -23t19.5 -6.5q28 0 40 33.5t12 113.5z
" />
    <glyph glyph-name="Hcircumflex" unicode="&#x124;" horiz-adv-x="422" 
d="M384 0h-111v316h-124v-316h-112v734h112v-308h124v308h111v-734zM245 914l110 -115l-35 -38l-106 71l-106 -71l-36 38l111 115h62z" />
    <glyph glyph-name="hcircumflex" unicode="&#x125;" horiz-adv-x="372" 
d="M233 363q0 38 -7.5 54t-29.5 16q-18 0 -29 -9.5t-16.5 -25.5t-7.5 -37t-2 -44v-317h-105v734h105v-274h1q3 9 8.5 22t16.5 24.5t28 20t42 8.5q31 0 50.5 -10.5t30.5 -29t15.5 -45t4.5 -57.5v-393h-105v363zM122 899l110 -115l-35 -38l-106 71l-106 -71l-36 38l111 115h62
z" />
    <glyph glyph-name="Hbar" unicode="&#x126;" horiz-adv-x="438" 
d="M392 624h42v-96h-42v-528h-111v316h-124v-316h-112v528h-42v96h42v110h112v-110h124v110h111v-110zM281 426v102h-124v-102h124z" />
    <glyph glyph-name="hbar" unicode="&#x127;" horiz-adv-x="372" 
d="M233 363q0 38 -7.5 54t-29.5 16q-18 0 -29 -9.5t-16.5 -25.5t-7.5 -37t-2 -44v-317h-105v587h-43v82h43v65h105v-65h107v-82h-107v-127h1q3 9 8.5 22t16.5 24.5t28 20t42 8.5q31 0 50.5 -10.5t30.5 -29t15.5 -45t4.5 -57.5v-393h-105v363z" />
    <glyph glyph-name="Itilde" unicode="&#x128;" horiz-adv-x="265" 
d="M188 95h58v-95h-227v95h57v544h-56v95h225v-95h-57v-544zM6 795q6 50 25.5 72.5t45.5 22.5q13 0 26.5 -4t25.5 -8.5t23 -8t20 -3.5q10 0 16.5 5.5t10.5 22.5l53 -6q-5 -45 -22 -73.5t-52 -28.5q-14 0 -27 4t-25.5 9t-23.5 9t-20 4q-18 0 -25 -28z" />
    <glyph glyph-name="itilde" unicode="&#x129;" horiz-adv-x="181" 
d="M39 523h106v-523h-106v523zM-30 611q6 50 25.5 72.5t45.5 22.5q13 0 26.5 -4t25.5 -8.5t23 -8t20 -3.5q10 0 16.5 5.5t10.5 22.5l53 -6q-5 -45 -22 -73.5t-52 -28.5q-14 0 -27 4t-25.5 9t-23.5 9t-20 4q-18 0 -25 -28z" />
    <glyph glyph-name="Imacron" unicode="&#x12a;" horiz-adv-x="265" 
d="M188 95h58v-95h-227v95h57v544h-56v95h225v-95h-57v-544zM14 872h234v-80h-234v80z" />
    <glyph glyph-name="imacron" unicode="&#x12b;" horiz-adv-x="181" 
d="M39 523h106v-523h-106v523zM-24 690h232v-80h-232v80z" />
    <glyph glyph-name="Iogonek" unicode="&#x12e;" horiz-adv-x="265" 
d="M188 95h58v-95h-74q-19 -23 -34.5 -51t-15.5 -51q0 -24 20 -24q9 0 16.5 6t15.5 18l43 -34q-15 -27 -40 -43t-57 -16q-31 0 -52.5 16.5t-21.5 51.5q0 20 6.5 38t17 34t23 29.5t24.5 25.5h-98v95h57v544h-56v95h225v-95h-57v-544z" />
    <glyph glyph-name="iogonek" unicode="&#x12f;" horiz-adv-x="178" 
d="M39 523h103v-523q-32 -23 -49.5 -51t-17.5 -51q0 -24 20 -24q9 0 16.5 6t15.5 18l43 -34q-15 -27 -40 -43t-57 -16q-31 0 -52.5 16.5t-21.5 51.5q0 20 7 38t18 34t24 29.5t25 25.5h-34v523zM39 734h103v-132h-103v132z" />
    <glyph glyph-name="Idotaccent" unicode="&#x130;" horiz-adv-x="265" 
d="M188 95h58v-95h-227v95h57v544h-56v95h225v-95h-57v-544zM77 906h107v-131h-107v131z" />
    <glyph glyph-name="dotlessi" unicode="&#x131;" horiz-adv-x="181" 
d="M39 523h106v-523h-106v523z" />
    <glyph glyph-name="IJ" unicode="&#x132;" horiz-adv-x="621" 
d="M188 95h58v-95h-227v95h57v544h-56v95h225v-95h-57v-544zM380 215q0 -21 1.5 -43.5t6 -40.5t14 -29.5t27.5 -11.5q10 0 18.5 3.5t14.5 14.5t9.5 30.5t3.5 51.5v544h111v-567q0 -87 -41 -133t-122 -46q-48 0 -78.5 16.5t-48 46t-24 69.5t-5.5 88z" />
    <glyph glyph-name="ij" unicode="&#x133;" horiz-adv-x="356" 
d="M42 734h103v-132h-103v132zM42 523h103v-523h-103v523zM214 734h108v-132h-108v132zM131 -98q18 -6 37 -6q26 0 37 17.5t11 59.5v550h104v-558q0 -47 -11 -78t-29 -49t-42 -25.5t-51 -7.5q-20 0 -36 3t-28 7z" />
    <glyph glyph-name="Jcircumflex" unicode="&#x134;" horiz-adv-x="363" 
d="M123 215q0 -21 1.5 -43.5t6 -40.5t14 -29.5t27.5 -11.5q10 0 18.5 3.5t14.5 14.5t9.5 30.5t3.5 51.5v544h111v-567q0 -87 -41 -133t-122 -46q-48 0 -78.5 16.5t-48 46t-24 69.5t-5.5 88zM299 914l110 -115l-35 -38l-106 71l-106 -71l-36 38l111 115h62z" />
    <glyph glyph-name="jcircumflex" unicode="&#x135;" horiz-adv-x="177" 
d="M-41 -98q11 -4 18 -5t15 -1q22 0 33.5 19t11.5 70v538h104v-553q0 -49 -11.5 -81t-30 -50.5t-43.5 -26t-52 -7.5q-18 0 -34 3.5t-26 7.5zM118 743l91 -143l-47 -34l-75 84l-76 -84l-43 32l86 145h64z" />
    <glyph glyph-name="Kcommaaccent" unicode="&#x136;" horiz-adv-x="421" 
d="M166 -46h93v-88l-41 -120l-46 12l24 88h-30v108zM149 423l164 311h115l-170 -294l164 -440h-113l-120 328l-40 -67v-261h-112v734h112v-311z" />
    <glyph glyph-name="kcommaaccent" unicode="&#x137;" horiz-adv-x="379" 
d="M145 -46h93v-88l-41 -120l-46 12l24 88h-30v108zM142 314l115 209h114l-119 -187l126 -336h-111l-84 234l-41 -64v-170h-104v734h104v-420z" />
    <glyph glyph-name="Lacute" unicode="&#x139;" horiz-adv-x="334" 
d="M208 843l-175 -80l-30 53l153 113zM149 104h174v-104h-286v734h112v-630z" />
    <glyph glyph-name="lacute" unicode="&#x13a;" horiz-adv-x="178" 
d="M205 843l-175 -80l-30 53l153 113zM142 0h-105v734h105v-734z" />
    <glyph glyph-name="Lcommaaccent" unicode="&#x13b;" horiz-adv-x="334" 
d="M128 -46h93v-88l-41 -120l-46 12l24 88h-30v108zM149 104h174v-104h-286v734h112v-630z" />
    <glyph glyph-name="lcommaaccent" unicode="&#x13c;" horiz-adv-x="178" 
d="M42 -46h93v-88l-41 -120l-46 12l24 88h-30v108zM142 0h-105v734h105v-734z" />
    <glyph glyph-name="Lcaron" unicode="&#x13d;" horiz-adv-x="334" 
d="M309 734l-42 -197l-58 4v193h100zM149 104h174v-104h-286v734h112v-630z" />
    <glyph glyph-name="lcaron" unicode="&#x13e;" horiz-adv-x="217" 
d="M271 734l-42 -197l-58 4v193h100zM141 0h-105v734h105v-734z" />
    <glyph glyph-name="Ldot" unicode="&#x13f;" horiz-adv-x="334" 
d="M224 468h92v-126h-92v126zM149 104h174v-104h-286v734h112v-630z" />
    <glyph glyph-name="ldot" unicode="&#x140;" horiz-adv-x="275" 
d="M142 0h-105v734h105v-734zM180 444h94v-125h-94v125z" />
    <glyph glyph-name="Lslash" unicode="&#x141;" horiz-adv-x="334" 
d="M149 443l105 63l25 -76l-130 -77v-249h174v-104h-286v296l-62 -39l-22 76l84 52v349h112v-291z" />
    <glyph glyph-name="lslash" unicode="&#x142;" horiz-adv-x="263" 
d="M184 463l57 33l24 -79l-81 -47v-370h-105v322l-48 -28l-23 78l71 42v320h105v-271z" />
    <glyph glyph-name="Nacute" unicode="&#x143;" horiz-adv-x="455" 
d="M358 843l-175 -80l-30 53l153 113zM290 0l-144 507h-3v-507h-106v734h140l133 -488h3v488h105v-734h-128z" />
    <glyph glyph-name="nacute" unicode="&#x144;" horiz-adv-x="373" 
d="M296 703l-125 -137l-49 37l97 161zM339 0h-105v363q0 32 -6 51.5t-31 19.5q-18 0 -29 -9.5t-16.5 -25.5t-7.5 -37.5t-2 -44.5v-317h-105v523h93l3 -67h2q3 9 9 22.5t17 26t29.5 21.5t46.5 9q30 0 50 -10.5t31.5 -29t16 -45t4.5 -57.5v-393z" />
    <glyph glyph-name="Ncommaaccent" unicode="&#x145;" horiz-adv-x="455" 
d="M185 -46h93v-88l-41 -120l-46 12l24 88h-30v108zM290 0l-144 507h-3v-507h-106v734h140l133 -488h3v488h105v-734h-128z" />
    <glyph glyph-name="ncommaaccent" unicode="&#x146;" horiz-adv-x="373" 
d="M142 -46h93v-88l-41 -120l-46 12l24 88h-30v108zM339 0h-105v363q0 32 -6 51.5t-31 19.5q-18 0 -29 -9.5t-16.5 -25.5t-7.5 -37.5t-2 -44.5v-317h-105v523h93l3 -67h2q3 9 9 22.5t17 26t29.5 21.5t46.5 9q30 0 50 -10.5t31.5 -29t16 -45t4.5 -57.5v-393z" />
    <glyph glyph-name="Ncaron" unicode="&#x147;" horiz-adv-x="455" 
d="M207 762l-107 107l35 39l101 -65l102 65l35 -39l-106 -107h-60zM290 0l-144 507h-3v-507h-106v734h140l133 -488h3v488h105v-734h-128z" />
    <glyph glyph-name="ncaron" unicode="&#x148;" horiz-adv-x="373" 
d="M156 573l-87 145l43 32l74 -84l78 84l43 -32l-91 -145h-60zM339 0h-105v363q0 32 -6 51.5t-31 19.5q-18 0 -29 -9.5t-16.5 -25.5t-7.5 -37.5t-2 -44.5v-317h-105v523h93l3 -67h2q3 9 9 22.5t17 26t29.5 21.5t46.5 9q30 0 50 -10.5t31.5 -29t16 -45t4.5 -57.5v-393z" />
    <glyph glyph-name="napostrophe" unicode="&#x149;" 
d="M64 576h-30l24 -88l-45 -11l-42 121v87h93v-109zM381 0h-105v363q0 32 -6 51.5t-31 19.5q-18 0 -29 -9.5t-16.5 -25.5t-7.5 -37.5t-2 -44.5v-317h-105v523h93l3 -67h2q3 9 9 22.5t17 26t29.5 21.5t46.5 9q30 0 50 -10.5t31.5 -29t16 -45t4.5 -57.5v-393z" />
    <glyph glyph-name="Omacron" unicode="&#x14c;" 
d="M94 872h234v-80h-234v80zM200 -12q-55 0 -89 23.5t-52.5 70.5t-24.5 118t-6 167t9.5 167t31.5 118.5t58 71t90 23.5q57 0 90.5 -23t51.5 -68.5t23 -114t5 -159.5q0 -100 -8 -174t-29 -123t-57.5 -73t-92.5 -24zM208 86q22 0 34.5 15t19 49t8 88.5t1.5 134.5
q0 76 -2 127.5t-8 83.5t-17.5 46t-31.5 14q-22 0 -35.5 -15t-20.5 -47.5t-9 -85t-2 -127.5q0 -81 1.5 -135.5t8 -87t19 -46.5t34.5 -14z" />
    <glyph glyph-name="omacron" unicode="&#x14d;" horiz-adv-x="355" 
d="M69 690h232v-80h-232v80zM173 -12q-43 0 -72 16.5t-46.5 50t-25 85t-7.5 121.5q0 140 39 207t125 67q45 0 73.5 -16.5t45 -49.5t23 -82.5t6.5 -115.5q0 -143 -36 -213t-125 -70zM179 86q17 0 26 10.5t13.5 32.5t5 56.5t0.5 82.5q0 45 -1 76.5t-5.5 51.5t-13 29.5
t-24.5 9.5q-33 0 -40.5 -41t-7.5 -131q0 -45 1 -78.5t5.5 -55.5t14 -32.5t26.5 -10.5z" />
    <glyph glyph-name="Obreve" unicode="&#x14e;" 
d="M160 908q6 -59 62 -59q23 0 40.5 10.5t25.5 47.5l57 -11q-3 -54 -37 -88.5t-88 -34.5q-25 0 -47.5 8.5t-39 25t-26 39.5t-9.5 53zM200 -12q-55 0 -89 23.5t-52.5 70.5t-24.5 118t-6 167t9.5 167t31.5 118.5t58 71t90 23.5q57 0 90.5 -23t51.5 -68.5t23 -114t5 -159.5
q0 -100 -8 -174t-29 -123t-57.5 -73t-92.5 -24zM208 86q22 0 34.5 15t19 49t8 88.5t1.5 134.5q0 76 -2 127.5t-8 83.5t-17.5 46t-31.5 14q-22 0 -35.5 -15t-20.5 -47.5t-9 -85t-2 -127.5q0 -81 1.5 -135.5t8 -87t19 -46.5t34.5 -14z" />
    <glyph glyph-name="obreve" unicode="&#x14f;" horiz-adv-x="355" 
d="M173 -12q-43 0 -72 16.5t-46.5 50t-25 85t-7.5 121.5q0 140 39 207t125 67q45 0 73.5 -16.5t45 -49.5t23 -82.5t6.5 -115.5q0 -143 -36 -213t-125 -70zM179 86q17 0 26 10.5t13.5 32.5t5 56.5t0.5 82.5q0 45 -1 76.5t-5.5 51.5t-13 29.5t-24.5 9.5q-33 0 -40.5 -41
t-7.5 -131q0 -45 1 -78.5t5.5 -55.5t14 -32.5t26.5 -10.5zM125 728q5 -43 21.5 -58.5t39.5 -15.5q19 0 36.5 15t25.5 59l56 -7q-4 -70 -37.5 -105.5t-85.5 -35.5q-49 0 -82 35t-35 105z" />
    <glyph glyph-name="Ohungarumlaut" unicode="&#x150;" 
d="M200 -12q-55 0 -89 23.5t-52.5 70.5t-24.5 118t-6 167t9.5 167t31.5 118.5t58 71t90 23.5q57 0 90.5 -23t51.5 -68.5t23 -114t5 -159.5q0 -100 -8 -174t-29 -123t-57.5 -73t-92.5 -24zM208 86q22 0 34.5 15t19 49t8 88.5t1.5 134.5q0 76 -2 127.5t-8 83.5t-17.5 46
t-31.5 14q-22 0 -35.5 -15t-20.5 -47.5t-9 -85t-2 -127.5q0 -81 1.5 -135.5t8 -87t19 -46.5t34.5 -14zM425 851l-154 -89l-34 49l133 112zM276 874l-140 -110l-40 38l114 140z" />
    <glyph glyph-name="ohungarumlaut" unicode="&#x151;" horiz-adv-x="355" 
d="M367 688l-116 -121l-39 34l88 139zM246 704l-101 -137l-41 25l70 157zM173 -12q-43 0 -72 16.5t-46.5 50t-25 85t-7.5 121.5q0 140 39 207t125 67q45 0 73.5 -16.5t45 -49.5t23 -82.5t6.5 -115.5q0 -143 -36 -213t-125 -70zM179 86q17 0 26 10.5t13.5 32.5t5 56.5
t0.5 82.5q0 45 -1 76.5t-5.5 51.5t-13 29.5t-24.5 9.5q-33 0 -40.5 -41t-7.5 -131q0 -45 1 -78.5t5.5 -55.5t14 -32.5t26.5 -10.5z" />
    <glyph glyph-name="OE" unicode="&#x152;" horiz-adv-x="589" 
d="M539 327h-164v-223h202v-104h-289q-20 -6 -41.5 -9t-40.5 -3q-59 0 -94 25t-53.5 73.5t-24.5 119.5t-6 163q0 95 9.5 166t31 118t58 70.5t90.5 23.5q34 0 70 -13h270v-104h-182v-207h164v-96zM212 86q14 0 26 2.5t26 10.5v530q-14 8 -26 11.5t-27 3.5q-21 0 -34 -13.5
t-20 -45t-9.5 -84t-2.5 -129.5q0 -83 1.5 -138t8.5 -88t20 -46.5t37 -13.5z" />
    <glyph glyph-name="oe" unicode="&#x153;" horiz-adv-x="544" 
d="M522 188q0 -60 -11.5 -99t-31 -61.5t-45 -31t-52.5 -8.5q-42 0 -67.5 15t-41.5 41q-16 -26 -41 -41t-62 -15q-84 0 -116 66.5t-32 206.5t39 207t125 67q36 0 59 -15t37 -41q33 56 105 56q42 0 71 -16t44.5 -51t19 -91t-3.5 -135h-190q-1 -78 7.5 -116.5t42.5 -38.5
q28 0 37.5 24.5t7.5 81.5zM179 86q17 0 26 10.5t13.5 32.5t5 56.5t0.5 82.5q0 45 -1 76.5t-5.5 51.5t-13 29.5t-24.5 9.5q-33 0 -40.5 -41t-7.5 -131q0 -45 1 -78.5t5.5 -55.5t14 -32.5t26.5 -10.5zM422 315q3 61 -5 91t-37 30q-32 0 -42 -34t-11 -87h95z" />
    <glyph glyph-name="Racute" unicode="&#x154;" horiz-adv-x="414" 
d="M193 318h-23h-21v-318h-112v734h118q113 0 170 -45.5t57 -152.5q0 -68 -22.5 -117t-70.5 -75l123 -344h-120zM165 417q53 0 78 24t25 87q0 56 -23.5 78t-60.5 22h-35v-211h16zM293 843l-175 -80l-30 53l153 113z" />
    <glyph glyph-name="racute" unicode="&#x155;" horiz-adv-x="337" 
d="M282 703l-125 -137l-49 37l97 161zM222 335q3 32 2 51.5t-4.5 30t-10 14t-14.5 3.5q-29 0 -41 -33.5t-12 -109.5v-291h-105v523h92l4 -69h2q4 13 11 27.5t19.5 26.5t30.5 19.5t43 7.5q55 0 75.5 -47t12.5 -145z" />
    <glyph glyph-name="Rcommaaccent" unicode="&#x156;" horiz-adv-x="414" 
d="M193 318h-23h-21v-318h-112v734h118q113 0 170 -45.5t57 -152.5q0 -68 -22.5 -117t-70.5 -75l123 -344h-120zM165 417q53 0 78 24t25 87q0 56 -23.5 78t-60.5 22h-35v-211h16zM171 -46h93v-88l-41 -120l-46 12l24 88h-30v108z" />
    <glyph glyph-name="rcommaaccent" unicode="&#x157;" horiz-adv-x="337" 
d="M43 -46h93v-88l-41 -120l-46 12l24 88h-30v108zM222 335q3 32 2 51.5t-4.5 30t-10 14t-14.5 3.5q-29 0 -41 -33.5t-12 -109.5v-291h-105v523h92l4 -69h2q4 13 11 27.5t19.5 26.5t30.5 19.5t43 7.5q55 0 75.5 -47t12.5 -145z" />
    <glyph glyph-name="Rcaron" unicode="&#x158;" horiz-adv-x="414" 
d="M149 762l-107 107l35 39l101 -65l102 65l35 -39l-106 -107h-60zM193 318h-23h-21v-318h-112v734h118q113 0 170 -45.5t57 -152.5q0 -68 -22.5 -117t-70.5 -75l123 -344h-120zM165 417q53 0 78 24t25 87q0 56 -23.5 78t-60.5 22h-35v-211h16z" />
    <glyph glyph-name="rcaron" unicode="&#x159;" horiz-adv-x="337" 
d="M142 573l-87 145l43 32l74 -84l78 84l43 -32l-91 -145h-60zM222 335q3 32 2 51.5t-4.5 30t-10 14t-14.5 3.5q-29 0 -41 -33.5t-12 -109.5v-291h-105v523h92l4 -69h2q4 13 11 27.5t19.5 26.5t30.5 19.5t43 7.5q55 0 75.5 -47t12.5 -145z" />
    <glyph glyph-name="Sacute" unicode="&#x15a;" horiz-adv-x="392" 
d="M254 498q2 78 -9 112t-49 34q-32 0 -47 -21.5t-15 -53.5q0 -48 20.5 -74.5t58.5 -52.5q27 -20 56 -40.5t53 -48t40 -65t16 -90.5q0 -54 -13.5 -94t-37.5 -65.5t-57 -38t-72 -12.5q-100 0 -141 61.5t-36 180.5l112 10q0 -47 4.5 -77t13.5 -47t22 -23t31 -6q29 0 45.5 20.5
t16.5 65.5q0 28 -7.5 50t-20.5 39t-30.5 30.5t-36.5 25.5q-26 18 -52.5 36.5t-48 44.5t-35 61t-13.5 86t14.5 89t39 62.5t58 37t72.5 12.5q89 0 125.5 -57.5t28.5 -183.5zM312 843l-175 -80l-30 53l153 113z" />
    <glyph glyph-name="sacute" unicode="&#x15b;" horiz-adv-x="325" 
d="M278 703l-125 -137l-49 37l97 161zM215 357q1 37 -7.5 60t-37.5 23q-20 0 -32 -11.5t-12 -37.5q0 -25 14 -41.5t34.5 -30t44.5 -27t44.5 -32.5t34.5 -46.5t14 -68.5q0 -83 -42 -120t-109 -37q-75 0 -110 45.5t-35 126.5l95 8q-1 -45 11 -67.5t42 -22.5q20 0 32 12.5
t12 40.5t-13.5 45.5t-34 31.5t-44 27t-44 31.5t-34 45.5t-13.5 70q0 39 12 68t33 48t48 28t57 9q64 0 99 -38.5t33 -132.5z" />
    <glyph glyph-name="Scircumflex" unicode="&#x15c;" horiz-adv-x="392" 
d="M254 498q2 78 -9 112t-49 34q-32 0 -47 -21.5t-15 -53.5q0 -48 20.5 -74.5t58.5 -52.5q27 -20 56 -40.5t53 -48t40 -65t16 -90.5q0 -54 -13.5 -94t-37.5 -65.5t-57 -38t-72 -12.5q-100 0 -141 61.5t-36 180.5l112 10q0 -47 4.5 -77t13.5 -47t22 -23t31 -6q29 0 45.5 20.5
t16.5 65.5q0 28 -7.5 50t-20.5 39t-30.5 30.5t-36.5 25.5q-26 18 -52.5 36.5t-48 44.5t-35 61t-13.5 86t14.5 89t39 62.5t58 37t72.5 12.5q89 0 125.5 -57.5t28.5 -183.5zM228 914l110 -115l-35 -38l-106 71l-106 -71l-36 38l111 115h62z" />
    <glyph glyph-name="scircumflex" unicode="&#x15d;" horiz-adv-x="325" 
d="M198 743l91 -143l-47 -34l-75 84l-76 -84l-43 32l86 145h64zM215 357q1 37 -7.5 60t-37.5 23q-20 0 -32 -11.5t-12 -37.5q0 -25 14 -41.5t34.5 -30t44.5 -27t44.5 -32.5t34.5 -46.5t14 -68.5q0 -83 -42 -120t-109 -37q-75 0 -110 45.5t-35 126.5l95 8q-1 -45 11 -67.5
t42 -22.5q20 0 32 12.5t12 40.5t-13.5 45.5t-34 31.5t-44 27t-44 31.5t-34 45.5t-13.5 70q0 39 12 68t33 48t48 28t57 9q64 0 99 -38.5t33 -132.5z" />
    <glyph glyph-name="Scedilla" unicode="&#x15e;" horiz-adv-x="392" 
d="M166 -10q-82 10 -116 70.5t-29 169.5l112 10q0 -47 4.5 -77t13.5 -47t22 -23t31 -6q29 0 45.5 20.5t16.5 65.5q0 28 -7.5 50t-20.5 39t-30.5 30.5t-36.5 25.5q-26 18 -52.5 36.5t-48 44.5t-35 61t-13.5 86t14.5 89t39 62.5t58 37t72.5 12.5q89 0 125.5 -57.5t28.5 -183.5
l-106 -8q2 78 -9 112t-49 34q-32 0 -47 -21.5t-15 -53.5q0 -48 20.5 -74.5t58.5 -52.5q27 -20 56 -40.5t53 -48t40 -65t16 -90.5q0 -52 -12.5 -90.5t-35 -64t-53 -39t-66.5 -15.5l-17 -39l1 -1q5 3 13 5.5t19 2.5q30 0 46 -21.5t16 -54.5q0 -25 -8 -43t-21 -30t-29.5 -17.5
t-34.5 -5.5q-32 0 -54.5 16.5t-33.5 48.5l47 22q13 -34 37 -34q13 0 21 9.5t8 30.5q0 37 -26 37q-15 0 -25 -13l-32 17z" />
    <glyph glyph-name="scedilla" unicode="&#x15f;" horiz-adv-x="325" 
d="M134 -10q-61 8 -89.5 52t-28.5 118l95 8q-1 -45 11 -67.5t42 -22.5q20 0 32 12.5t12 40.5t-13.5 45.5t-34 31.5t-44 27t-44 31.5t-34 45.5t-13.5 70q0 39 12 68t33 48t48 28t57 9q64 0 99 -38.5t33 -132.5l-92 -7q1 37 -7.5 60t-37.5 23q-20 0 -32 -11.5t-12 -37.5
q0 -25 14 -41.5t34.5 -30t44.5 -27t44.5 -32.5t34.5 -46.5t14 -68.5q0 -77 -37 -114t-95 -42l-18 -39l1 -1q5 3 13 5.5t19 2.5q30 0 46 -21.5t16 -54.5q0 -25 -8 -43t-21 -30t-29.5 -17.5t-34.5 -5.5q-32 0 -54.5 16.5t-33.5 48.5l47 22q13 -34 37 -34q13 0 21 9.5t8 30.5
q0 37 -26 37q-15 0 -25 -13l-32 17z" />
    <glyph glyph-name="Scaron" unicode="&#x160;" horiz-adv-x="392" 
d="M254 498q2 78 -9 112t-49 34q-32 0 -47 -21.5t-15 -53.5q0 -48 20.5 -74.5t58.5 -52.5q27 -20 56 -40.5t53 -48t40 -65t16 -90.5q0 -54 -13.5 -94t-37.5 -65.5t-57 -38t-72 -12.5q-100 0 -141 61.5t-36 180.5l112 10q0 -47 4.5 -77t13.5 -47t22 -23t31 -6q29 0 45.5 20.5
t16.5 65.5q0 28 -7.5 50t-20.5 39t-30.5 30.5t-36.5 25.5q-26 18 -52.5 36.5t-48 44.5t-35 61t-13.5 86t14.5 89t39 62.5t58 37t72.5 12.5q89 0 125.5 -57.5t28.5 -183.5zM170 774l-107 107l35 39l101 -65l102 65l35 -39l-106 -107h-60z" />
    <glyph glyph-name="scaron" unicode="&#x161;" horiz-adv-x="325" 
d="M134 573l-87 145l43 32l74 -84l78 84l43 -32l-91 -145h-60zM215 357q1 37 -7.5 60t-37.5 23q-20 0 -32 -11.5t-12 -37.5q0 -25 14 -41.5t34.5 -30t44.5 -27t44.5 -32.5t34.5 -46.5t14 -68.5q0 -83 -42 -120t-109 -37q-75 0 -110 45.5t-35 126.5l95 8q-1 -45 11 -67.5
t42 -22.5q20 0 32 12.5t12 40.5t-13.5 45.5t-34 31.5t-44 27t-44 31.5t-34 45.5t-13.5 70q0 39 12 68t33 48t48 28t57 9q64 0 99 -38.5t33 -132.5z" />
    <glyph glyph-name="Tcommaaccent" unicode="&#x162;" horiz-adv-x="356" 
d="M122 630h-116v104h344v-104h-116v-630h-33l-23 -50l1 -1q5 3 13 5.5t19 2.5q30 0 46 -21.5t16 -54.5q0 -25 -8 -43t-21 -30t-29.5 -17.5t-34.5 -5.5q-32 0 -54.5 16.5t-33.5 48.5l47 22q13 -34 37 -34q13 0 21 9.5t8 30.5q0 37 -26 37q-15 0 -25 -13l-32 17l32 81h-32
v630z" />
    <glyph glyph-name="tcommaaccent" unicode="&#x163;" horiz-adv-x="260" 
d="M133 -7q-35 10 -57.5 43t-22.5 100v299h-50v88h50v95l104 27v-122h82v-88h-82v-281q0 -44 10.5 -59.5t36.5 -15.5q10 0 21.5 2.5t21.5 5.5l11 -85q-7 -3 -29.5 -8t-51.5 -6l-17 -38l1 -1q5 3 13 5.5t19 2.5q30 0 46 -21.5t16 -54.5q0 -25 -8 -43t-21 -30t-29.5 -17.5
t-34.5 -5.5q-32 0 -54.5 16.5t-33.5 48.5l47 22q13 -34 37 -34q13 0 21 9.5t8 30.5q0 37 -26 37q-15 0 -25 -13l-32 17z" />
    <glyph glyph-name="Tcaron" unicode="&#x164;" horiz-adv-x="356" 
d="M145 762l-107 107l35 39l101 -65l102 65l35 -39l-106 -107h-60zM122 630h-116v104h344v-104h-116v-630h-112v630z" />
    <glyph glyph-name="tcaron" unicode="&#x165;" horiz-adv-x="260" 
d="M290 746l-42 -197l-58 4v193h100zM3 523h50v95l104 27v-122h82v-88h-82v-281q0 -44 10.5 -59.5t36.5 -15.5q10 0 21.5 2.5t21.5 5.5l11 -85q-7 -3 -31.5 -8.5t-53.5 -5.5q-25 0 -46.5 7t-38 24.5t-26 46t-9.5 70.5v299h-50v88z" />
    <glyph glyph-name="Tbar" unicode="&#x166;" horiz-adv-x="356" 
d="M122 346h-95v95h95v189h-116v104h344v-104h-116v-189h110v-95h-110v-346h-112v346z" />
    <glyph glyph-name="tbar" unicode="&#x167;" horiz-adv-x="260" 
d="M3 523h50v95l104 27v-122h82v-88h-82v-82h82v-82h-82v-117q0 -44 10.5 -59.5t36.5 -15.5q10 0 21.5 2.5t21.5 5.5l11 -85q-7 -3 -31.5 -8.5t-53.5 -5.5q-25 0 -46.5 7t-38 24.5t-26 46t-9.5 70.5v135h-50v82h50v82h-50v88z" />
    <glyph glyph-name="Utilde" unicode="&#x168;" horiz-adv-x="413" 
d="M85 795q6 50 25.5 72.5t45.5 22.5q13 0 26.5 -4t25.5 -8.5t23 -8t20 -3.5q10 0 16.5 5.5t10.5 22.5l53 -6q-5 -45 -22 -73.5t-52 -28.5q-14 0 -27 4t-25.5 9t-23.5 9t-20 4q-18 0 -25 -28zM270 734h109v-517q0 -49 -6.5 -91t-25.5 -72.5t-53.5 -48t-90.5 -17.5
q-57 0 -91 18.5t-51 50.5t-22 74t-5 90v513h109v-497q0 -42 2.5 -71t9.5 -47t19.5 -26t32.5 -8t32.5 7.5t19 25t9 46t2.5 70.5v500z" />
    <glyph glyph-name="utilde" unicode="&#x169;" horiz-adv-x="369" 
d="M35 523h104v-359q0 -35 6.5 -55t32.5 -20q17 0 27.5 10t16 26.5t7 38t1.5 44.5v315h105v-523h-92l-3 66h-3q-3 -10 -9 -23.5t-17 -25.5t-29 -20.5t-46 -8.5q-31 0 -50.5 10t-31 29t-15.5 45t-4 58v393zM67 611q6 50 25.5 72.5t45.5 22.5q13 0 26.5 -4t25.5 -8.5t23 -8
t20 -3.5q10 0 16.5 5.5t10.5 22.5l53 -6q-5 -45 -22 -73.5t-52 -28.5q-14 0 -27 4t-25.5 9t-23.5 9t-20 4q-18 0 -25 -28z" />
    <glyph glyph-name="Umacron" unicode="&#x16a;" horiz-adv-x="413" 
d="M93 872h234v-80h-234v80zM270 734h109v-517q0 -49 -6.5 -91t-25.5 -72.5t-53.5 -48t-90.5 -17.5q-57 0 -91 18.5t-51 50.5t-22 74t-5 90v513h109v-497q0 -42 2.5 -71t9.5 -47t19.5 -26t32.5 -8t32.5 7.5t19 25t9 46t2.5 70.5v500z" />
    <glyph glyph-name="umacron" unicode="&#x16b;" horiz-adv-x="369" 
d="M35 523h104v-359q0 -35 6.5 -55t32.5 -20q17 0 27.5 10t16 26.5t7 38t1.5 44.5v315h105v-523h-92l-3 66h-3q-3 -10 -9 -23.5t-17 -25.5t-29 -20.5t-46 -8.5q-31 0 -50.5 10t-31 29t-15.5 45t-4 58v393zM70 690h232v-80h-232v80z" />
    <glyph glyph-name="Ubreve" unicode="&#x16c;" horiz-adv-x="413" 
d="M147 902q6 -59 62 -59q23 0 40.5 10.5t25.5 47.5l57 -11q-3 -54 -37 -88.5t-88 -34.5q-25 0 -47.5 8.5t-39 25t-26 39.5t-9.5 53zM270 734h109v-517q0 -49 -6.5 -91t-25.5 -72.5t-53.5 -48t-90.5 -17.5q-57 0 -91 18.5t-51 50.5t-22 74t-5 90v513h109v-497q0 -42 2.5 -71
t9.5 -47t19.5 -26t32.5 -8t32.5 7.5t19 25t9 46t2.5 70.5v500z" />
    <glyph glyph-name="ubreve" unicode="&#x16d;" horiz-adv-x="369" 
d="M35 523h104v-359q0 -35 6.5 -55t32.5 -20q17 0 27.5 10t16 26.5t7 38t1.5 44.5v315h105v-523h-92l-3 66h-3q-3 -10 -9 -23.5t-17 -25.5t-29 -20.5t-46 -8.5q-31 0 -50.5 10t-31 29t-15.5 45t-4 58v393zM129 728q5 -43 21.5 -58.5t39.5 -15.5q19 0 36.5 15t25.5 59l56 -7
q-4 -70 -37.5 -105.5t-85.5 -35.5q-49 0 -82 35t-35 105z" />
    <glyph glyph-name="Uring" unicode="&#x16e;" horiz-adv-x="413" 
d="M270 734h109v-517q0 -49 -6.5 -91t-25.5 -72.5t-53.5 -48t-90.5 -17.5q-57 0 -91 18.5t-51 50.5t-22 74t-5 90v513h109v-497q0 -42 2.5 -71t9.5 -47t19.5 -26t32.5 -8t32.5 7.5t19 25t9 46t2.5 70.5v500zM207 764q-42 0 -64 24t-22 64q0 38 24.5 62.5t65.5 24.5
q42 0 64 -23.5t22 -61.5q0 -42 -23.5 -66t-66.5 -24zM208 809q29 0 29 43q0 40 -28 40q-14 0 -21.5 -9t-7.5 -32t7 -32.5t21 -9.5z" />
    <glyph glyph-name="uring" unicode="&#x16f;" horiz-adv-x="369" 
d="M186 577q-42 0 -64 24t-22 64q0 38 24.5 62.5t65.5 24.5q42 0 64 -23.5t22 -61.5q0 -42 -23.5 -66t-66.5 -24zM187 622q29 0 29 43q0 40 -28 40q-14 0 -21.5 -9t-7.5 -32t7 -32.5t21 -9.5zM35 523h104v-359q0 -35 6.5 -55t32.5 -20q17 0 27.5 10t16 26.5t7 38t1.5 44.5
v315h105v-523h-92l-3 66h-3q-3 -10 -9 -23.5t-17 -25.5t-29 -20.5t-46 -8.5q-31 0 -50.5 10t-31 29t-15.5 45t-4 58v393z" />
    <glyph glyph-name="Uhungarumlaut" unicode="&#x170;" horiz-adv-x="413" 
d="M270 734h109v-517q0 -49 -6.5 -91t-25.5 -72.5t-53.5 -48t-90.5 -17.5q-57 0 -91 18.5t-51 50.5t-22 74t-5 90v513h109v-497q0 -42 2.5 -71t9.5 -47t19.5 -26t32.5 -8t32.5 7.5t19 25t9 46t2.5 70.5v500zM420 851l-154 -89l-34 49l133 112zM271 874l-140 -110l-40 38
l114 140z" />
    <glyph glyph-name="uhungarumlaut" unicode="&#x171;" horiz-adv-x="369" 
d="M35 523h104v-359q0 -35 6.5 -55t32.5 -20q17 0 27.5 10t16 26.5t7 38t1.5 44.5v315h105v-523h-92l-3 66h-3q-3 -10 -9 -23.5t-17 -25.5t-29 -20.5t-46 -8.5q-31 0 -50.5 10t-31 29t-15.5 45t-4 58v393zM347 688l-116 -121l-39 34l88 139zM226 704l-101 -137l-41 25
l70 157z" />
    <glyph glyph-name="Uogonek" unicode="&#x172;" horiz-adv-x="413" 
d="M270 734h109v-517q0 -74 -17.5 -124t-65.5 -85q-14 -11 -26 -24.5t-20 -28.5t-12.5 -29.5t-4.5 -26.5q0 -24 18 -24q17 0 32 24l43 -37q-15 -27 -40.5 -42t-57.5 -15q-31 0 -52.5 16.5t-21.5 49.5q0 18 6.5 35.5t16.5 33t22.5 28t23.5 21.5q-5 -1 -10 -1h-10
q-57 0 -91 18.5t-51 50.5t-22 74t-5 90v513h109v-497q0 -42 2.5 -71t9.5 -47t19.5 -26t32.5 -8t32.5 7.5t19 25t9 46t2.5 70.5v500z" />
    <glyph glyph-name="uogonek" unicode="&#x173;" horiz-adv-x="369" 
d="M35 523h104v-359q0 -35 6.5 -55t32.5 -20q17 0 27.5 10t16 26.5t7 38t1.5 44.5v315h105v-523q-30 -23 -47.5 -51t-17.5 -51q0 -24 20 -24q9 0 16.5 6t15.5 18l43 -34q-15 -27 -40 -43t-57 -16q-31 0 -52.5 16.5t-21.5 51.5q0 20 6.5 37t17 32.5t24.5 29.5l28 28h-27
l-3 66h-3q-3 -10 -9 -23.5t-17 -25.5t-29 -20.5t-46 -8.5q-31 0 -50.5 10t-31 29t-15.5 45t-4 58v393z" />
    <glyph glyph-name="Wcircumflex" unicode="&#x174;" horiz-adv-x="638" 
d="M379 0l-54 571h-4l-53 -571h-154l-105 734h121l56 -602h5l61 602h146l59 -599h3l51 599h117l-93 -734h-156zM355 914l110 -115l-35 -38l-106 71l-106 -71l-36 38l111 115h62z" />
    <glyph glyph-name="wcircumflex" unicode="&#x175;" horiz-adv-x="571" 
d="M319 743l91 -143l-47 -34l-75 84l-76 -84l-43 32l86 145h64zM94 0l-95 523h108l55 -412h5l57 412h125l58 -412h4l56 412h105l-93 -523h-134l-58 405h-4l-57 -405h-132z" />
    <glyph glyph-name="Ycircumflex" unicode="&#x176;" horiz-adv-x="394" 
d="M254 0h-110v280l-147 454h121l81 -331h3l76 331h119l-143 -451v-283zM235 914l110 -115l-35 -38l-106 71l-106 -71l-36 38l111 115h62z" />
    <glyph glyph-name="ycircumflex" unicode="&#x177;" horiz-adv-x="341" 
d="M215 -32q-11 -48 -25.5 -79.5t-33.5 -50t-42.5 -26t-52.5 -7.5q-17 0 -34.5 4t-25.5 9l9 82q24 -8 41 -8q15 0 25 4t17.5 14t12.5 27t10 43l6 32l-125 511h121l54 -386h5l54 386h115zM205 743l91 -143l-47 -34l-75 84l-76 -84l-43 32l86 145h64z" />
    <glyph glyph-name="Ydieresis" unicode="&#x178;" horiz-adv-x="394" 
d="M254 0h-110v280l-147 454h121l81 -331h3l76 331h119l-143 -451v-283zM230 889h83v-109h-83v109zM97 889h83v-109h-83v109z" />
    <glyph glyph-name="Zacute" unicode="&#x179;" horiz-adv-x="303" 
d="M18 734h273v-95l-157 -535h161v-104h-290v96l160 534h-147v104zM264 843l-175 -80l-30 53l153 113z" />
    <glyph glyph-name="zacute" unicode="&#x17a;" horiz-adv-x="305" 
d="M277 703l-125 -137l-49 37l97 161zM26 523h265v-92l-159 -330h162v-101h-282v93l162 329h-148v101z" />
    <glyph glyph-name="Zdotaccent" unicode="&#x17b;" horiz-adv-x="303" 
d="M96 906h107v-131h-107v131zM18 734h273v-95l-157 -535h161v-104h-290v96l160 534h-147v104z" />
    <glyph glyph-name="zdotaccent" unicode="&#x17c;" horiz-adv-x="305" 
d="M26 523h265v-92l-159 -330h162v-101h-282v93l162 329h-148v101zM110 734h104v-132h-104v132z" />
    <glyph glyph-name="Zcaron" unicode="&#x17d;" horiz-adv-x="303" 
d="M120 762l-107 107l35 39l101 -65l102 65l35 -39l-106 -107h-60zM18 734h273v-95l-157 -535h161v-104h-290v96l160 534h-147v104z" />
    <glyph glyph-name="zcaron" unicode="&#x17e;" horiz-adv-x="305" 
d="M130 573l-87 145l43 32l74 -84l78 84l43 -32l-91 -145h-60zM26 523h265v-92l-159 -330h162v-101h-282v93l162 329h-148v101z" />
    <glyph glyph-name="florin" unicode="&#x192;" horiz-adv-x="410" 
d="M63 462h88l21 119q9 52 26.5 84.5t39.5 50.5t47 24.5t49 6.5q32 0 54 -5.5t33 -10.5l-24 -81q-10 3 -23.5 6t-26.5 3q-32 0 -46.5 -19t-22.5 -58l-21 -120h119l-16 -84h-118l-61 -346q-9 -54 -27 -87.5t-41 -52t-49.5 -25.5t-51.5 -7q-30 0 -53 5t-33 9l22 86
q10 -4 24 -7t27 -3q33 0 50.5 18t25.5 61l61 349h-89z" />
    <glyph glyph-name="Scommaaccent" unicode="&#x218;" horiz-adv-x="392" 
d="M254 498q2 78 -9 112t-49 34q-32 0 -47 -21.5t-15 -53.5q0 -48 20.5 -74.5t58.5 -52.5q27 -20 56 -40.5t53 -48t40 -65t16 -90.5q0 -54 -13.5 -94t-37.5 -65.5t-57 -38t-72 -12.5q-100 0 -141 61.5t-36 180.5l112 10q0 -47 4.5 -77t13.5 -47t22 -23t31 -6q29 0 45.5 20.5
t16.5 65.5q0 28 -7.5 50t-20.5 39t-30.5 30.5t-36.5 25.5q-26 18 -52.5 36.5t-48 44.5t-35 61t-13.5 86t14.5 89t39 62.5t58 37t72.5 12.5q89 0 125.5 -57.5t28.5 -183.5zM143 -46h93v-88l-41 -120l-46 12l24 88h-30v108z" />
    <glyph glyph-name="scommaaccent" unicode="&#x219;" horiz-adv-x="325" 
d="M112 -46h93v-88l-41 -120l-46 12l24 88h-30v108zM215 357q1 37 -7.5 60t-37.5 23q-20 0 -32 -11.5t-12 -37.5q0 -25 14 -41.5t34.5 -30t44.5 -27t44.5 -32.5t34.5 -46.5t14 -68.5q0 -83 -42 -120t-109 -37q-75 0 -110 45.5t-35 126.5l95 8q-1 -45 11 -67.5t42 -22.5
q20 0 32 12.5t12 40.5t-13.5 45.5t-34 31.5t-44 27t-44 31.5t-34 45.5t-13.5 70q0 39 12 68t33 48t48 28t57 9q64 0 99 -38.5t33 -132.5z" />
    <glyph glyph-name="uni021A" unicode="&#x21a;" horiz-adv-x="356" 
d="M122 630h-116v104h344v-104h-116v-630h-112v630zM133 -46h93v-88l-41 -120l-46 12l24 88h-30v108z" />
    <glyph glyph-name="uni021B" unicode="&#x21b;" horiz-adv-x="260" 
d="M115 -46h93v-88l-41 -120l-46 12l24 88h-30v108zM3 523h50v95l104 27v-122h82v-88h-82v-281q0 -44 10.5 -59.5t36.5 -15.5q10 0 21.5 2.5t21.5 5.5l11 -85q-7 -3 -31.5 -8.5t-53.5 -5.5q-25 0 -46.5 7t-38 24.5t-26 46t-9.5 70.5v299h-50v88z" />
    <glyph glyph-name="circumflex" unicode="&#x2c6;" horiz-adv-x="500" 
d="M281 743l91 -143l-47 -34l-75 84l-76 -84l-43 32l86 145h64z" />
    <glyph glyph-name="caron" unicode="&#x2c7;" horiz-adv-x="500" 
d="M218 573l-87 145l43 32l74 -84l78 84l43 -32l-91 -145h-60z" />
    <glyph glyph-name="uni02C9" unicode="&#x2c9;" horiz-adv-x="500" 
d="M134 690h232v-80h-232v80z" />
    <glyph glyph-name="breve" unicode="&#x2d8;" horiz-adv-x="500" 
d="M190 728q5 -43 21.5 -58.5t39.5 -15.5q19 0 36.5 15t25.5 59l56 -7q-4 -70 -37.5 -105.5t-85.5 -35.5q-49 0 -82 35t-35 105z" />
    <glyph glyph-name="dotaccent" unicode="&#x2d9;" horiz-adv-x="500" 
d="M198 734h104v-132h-104v132z" />
    <glyph glyph-name="ring" unicode="&#x2da;" horiz-adv-x="500" 
d="M247 577q-42 0 -64 24t-22 64q0 38 24.5 62.5t65.5 24.5q42 0 64 -23.5t22 -61.5q0 -42 -23.5 -66t-66.5 -24zM248 622q29 0 29 43q0 40 -28 40q-14 0 -21.5 -9t-7.5 -32t7 -32.5t21 -9.5z" />
    <glyph glyph-name="ogonek" unicode="&#x2db;" horiz-adv-x="500" 
d="M286 3q-20 -24 -36.5 -52.5t-16.5 -52.5t20 -24q9 0 16.5 6t15.5 18l43 -34q-15 -27 -40 -43t-57 -16q-31 0 -52.5 16.5t-21.5 51.5q0 21 7 39.5t18.5 35t25 31t25.5 26.5z" />
    <glyph glyph-name="tilde" unicode="&#x2dc;" horiz-adv-x="500" 
d="M128 611q6 50 25.5 72.5t45.5 22.5q13 0 26.5 -4t25.5 -8.5t23 -8t20 -3.5q10 0 16.5 5.5t10.5 22.5l53 -6q-5 -45 -22 -73.5t-52 -28.5q-14 0 -27 4t-25.5 9t-23.5 9t-20 4q-18 0 -25 -28z" />
    <glyph glyph-name="hungarumlaut" unicode="&#x2dd;" horiz-adv-x="500" 
d="M432 688l-116 -121l-39 34l88 139zM311 704l-101 -137l-41 25l70 157z" />
    <glyph glyph-name="Delta" unicode="&#x394;" horiz-adv-x="467" 
d="M13 0l142 734h160l144 -734h-446zM147 106h171l-78 493h-7z" />
    <glyph glyph-name="Omega" unicode="&#x3a9;" horiz-adv-x="471" 
d="M312 97h84v-97h-140v164q36 18 44 76t8 164q0 63 -2 108.5t-9.5 75t-21.5 43t-37 13.5q-20 0 -34 -12.5t-22.5 -41t-12.5 -75.5t-4 -116q0 -55 1 -94.5t6.5 -67.5t16 -45.5t29.5 -27.5v-164h-143v97h85v32q-34 14 -55 38t-32 58t-15 78t-4 100q0 73 8.5 136t29.5 109.5
t57 72.5t92 26q60 0 95 -24.5t53 -68t23.5 -103.5t5.5 -131q0 -58 -2.5 -104.5t-13 -81.5t-32 -60t-58.5 -41v-36z" />
    <glyph glyph-name="mu" unicode="&#x3bc;" horiz-adv-x="495" 
d="M67 523h104v-348q0 -45 9.5 -64t35.5 -19q52 0 52 93v338h101v-523h-69l-9 76h-2q-9 -32 -26.5 -49.5t-37.5 -25.5q-22 -10 -39.5 -10.5t-31.5 4.5l-2 -2l12 -169h-97v699z" />
    <glyph glyph-name="pi" unicode="&#x3c0;" horiz-adv-x="489" 
d="M416 0h-104v428h-134v-428h-104v523h342v-523z" />
    <glyph glyph-name="endash" unicode="&#x2013;" horiz-adv-x="330" 
d="M330 345v-73h-330v73h330z" />
    <glyph glyph-name="emdash" unicode="&#x2014;" horiz-adv-x="660" 
d="M660 345v-73h-660v73h660z" />
    <glyph glyph-name="quoteleft" unicode="&#x2018;" horiz-adv-x="167" 
d="M137 493h-102v104l50 160l51 -14l-35 -121h36v-129z" />
    <glyph glyph-name="quoteright" unicode="&#x2019;" horiz-adv-x="168" 
d="M32 734h102v-104l-50 -160l-51 14l35 121h-36v129z" />
    <glyph glyph-name="quotesinglbase" unicode="&#x201a;" horiz-adv-x="167" 
d="M34 129h102v-104l-50 -160l-51 14l35 121h-36v129z" />
    <glyph glyph-name="quotedblleft" unicode="&#x201c;" horiz-adv-x="302" 
d="M270 493h-102v104l50 160l51 -14l-35 -121h36v-129zM137 493h-102v104l50 160l51 -14l-35 -121h36v-129z" />
    <glyph glyph-name="quotedblright" unicode="&#x201d;" horiz-adv-x="301" 
d="M165 734h102v-104l-50 -160l-51 14l35 121h-36v129zM32 734h102v-104l-50 -160l-51 14l35 121h-36v129z" />
    <glyph glyph-name="quotedblbase" unicode="&#x201e;" horiz-adv-x="300" 
d="M64 129h102v-104l-50 -160l-51 14l35 121h-36v129zM134 129h102v-104l-50 -160l-51 14l35 121h-36v129z" />
    <glyph glyph-name="dagger" unicode="&#x2020;" horiz-adv-x="338" 
d="M214 524l-11 -234h-70l-12 234l-100 8v67l99 9l12 126h71l12 -126l104 -9v-67z" />
    <glyph glyph-name="daggerdbl" unicode="&#x2021;" horiz-adv-x="342" 
d="M220 358l-13 -82h-72l-12 82l-102 8v69l102 9l11 50l-11 64l-102 9v68l103 10l12 89h71l12 -89l103 -10v-68l-102 -9l-13 -63l13 -51l102 -9v-69z" />
    <glyph glyph-name="bullet" unicode="&#x2022;" horiz-adv-x="289" 
d="M45 337q0 34 8.5 57t22 37t31 20.5t35.5 6.5q20 0 38.5 -6.5t32.5 -20.5t22.5 -37.5t8.5 -56.5q0 -32 -8.5 -55t-22.5 -38t-32.5 -22t-38.5 -7q-39 0 -68 28t-29 94z" />
    <glyph glyph-name="ellipsis" unicode="&#x2026;" horiz-adv-x="523" 
d="M44 145h100v-145h-100v145zM213 145h100v-145h-100v145zM381 145h100v-145h-100v145z" />
    <glyph glyph-name="perthousand" unicode="&#x2030;" horiz-adv-x="759" 
d="M508 165q0 90 31 133.5t90 43.5q64 0 86.5 -43t22.5 -128q0 -94 -28.5 -139t-92.5 -45q-61 0 -85 45t-24 133zM624 59q23 0 28 25.5t5 82.5q0 60 -5.5 81t-25.5 21t-28 -22.5t-8 -81.5q0 -53 5.5 -79.5t28.5 -26.5zM254 165q0 90 31 133.5t90 43.5q64 0 86.5 -43
t22.5 -128q0 -94 -29 -139t-93 -45q-60 0 -84 45t-24 133zM369 59q23 0 28.5 25.5t5.5 82.5q0 60 -6 81t-25 21q-20 0 -28 -22.5t-8 -81.5q0 -53 5 -79.5t28 -26.5zM20 557q0 90 31 133.5t90 43.5q64 0 86.5 -43t22.5 -128q0 -93 -28.5 -138t-93.5 -45q-60 0 -84 44.5
t-24 132.5zM135 452q23 0 28.5 25t5.5 82q0 60 -5.5 81.5t-25.5 21.5t-28 -23t-8 -82q0 -53 5 -79t28 -26zM38 246l466 364l52 -65l-466 -366z" />
    <glyph glyph-name="guilsinglleft" unicode="&#x2039;" horiz-adv-x="225" 
d="M128 52l-100 199l100 190l77 -30l-71 -158l69 -169z" />
    <glyph glyph-name="guilsinglright" unicode="&#x203a;" horiz-adv-x="222" 
d="M24 84l69 169l-71 158l77 30l100 -190l-100 -199z" />
    <glyph glyph-name="fraction" unicode="&#x2044;" horiz-adv-x="162" 
d="M188 756l76 -26l-289 -747l-76 29z" />
    <glyph glyph-name="Euro" unicode="&#x20ac;" horiz-adv-x="427" 
d="M244 83q18 0 28.5 10t16.5 27.5t7.5 42.5t1.5 55l109 -5q-2 -119 -44.5 -172t-127.5 -53q-47 0 -79 17.5t-52 52t-29.5 85t-12.5 116.5h-59l12 82h45v22v30h-43l12 82h35q10 134 54.5 203t137.5 69q85 0 120.5 -59.5t35.5 -171.5l-108 -8q1 73 -10.5 106t-43.5 33
q-35 0 -51 -40.5t-21 -131.5h128l-12 -82h-118v-28v-24h113l-11 -82h-101q1 -50 5 -83.5t12 -54t20 -29.5t30 -9z" />
    <glyph glyph-name="trademark" unicode="&#x2122;" horiz-adv-x="591" 
d="M81 663h-70v71h218v-71h-69v-313h-79v313zM376 350l-58 283v-283h-65v384h98l52 -293l48 293h106v-384h-71v284l-57 -284h-53z" />
    <glyph glyph-name="uni2126" unicode="&#x2126;" horiz-adv-x="462" 
d="M307 97h84v-97h-140v164q36 18 44 76t8 164q0 63 -2 108.5t-9.5 75t-21.5 43t-37 13.5q-20 0 -34 -12.5t-22.5 -41t-12.5 -75.5t-4 -116q0 -55 1 -94.5t6.5 -67.5t16 -45.5t29.5 -27.5v-164h-143v97h85v32q-34 14 -55 38t-32 58t-15 78t-4 100q0 73 8.5 136t29.5 109.5
t57 72.5t92 26q60 0 95 -24.5t53 -68t23.5 -103.5t5.5 -131q0 -58 -2.5 -104.5t-13 -81.5t-32 -60t-58.5 -41v-36z" />
    <glyph glyph-name="partialdiff" unicode="&#x2202;" horiz-adv-x="485" 
d="M329 402q0 51 -2.5 94t-12.5 74t-29 48.5t-52 17.5q-37 0 -67 -13.5t-56 -28.5l-40 82q17 13 38.5 24t44.5 18.5t46.5 11.5t44.5 4q63 0 101.5 -26t60 -69.5t28.5 -99t7 -113.5q0 -45 -2.5 -94.5t-10.5 -98.5t-23 -93t-40 -78t-62 -54t-88 -20q-58 0 -93.5 21.5
t-54.5 55.5t-25 75t-6 80q0 51 10.5 96.5t33 80t57.5 54.5t83 20q42 0 68.5 -18.5t40.5 -50.5zM312 266q0 22 -3 42.5t-11.5 36.5t-22.5 25t-35 9q-25 0 -42 -11.5t-27 -32.5t-14 -50.5t-4 -64.5q0 -30 2.5 -55t10 -43.5t21 -28.5t34.5 -10q27 0 45 18.5t28 46.5t14 60t4 58
z" />
    <glyph glyph-name="uni2206" unicode="&#x2206;" horiz-adv-x="467" 
d="M13 0l142 734h160l144 -734h-446zM147 106h171l-78 493h-7z" />
    <glyph glyph-name="product" unicode="&#x220f;" horiz-adv-x="561" 
d="M484 -161h-113v792h-179v-792h-113v895h405v-895z" />
    <glyph glyph-name="summation" unicode="&#x2211;" horiz-adv-x="421" 
d="M151 -69h223v-107h-362v105l204 350l-186 350v105h339v-108h-197l184 -348z" />
    <glyph glyph-name="minus" unicode="&#x2212;" 
d="M62 282v91h290v-91h-290z" />
    <glyph glyph-name="radical" unicode="&#x221a;" horiz-adv-x="529" 
d="M234 0l-92 246l-67 -27l-31 84l168 66l77 -223l127 604l96 -19l-155 -731h-123z" />
    <glyph glyph-name="infinity" unicode="&#x221e;" horiz-adv-x="657" 
d="M476 179q-27 0 -48.5 7t-39.5 18.5t-32 25t-26 27.5q-12 -13 -27.5 -27t-34.5 -25.5t-42 -19t-50 -7.5q-26 0 -50.5 8t-44 24.5t-31 42t-11.5 59.5q0 62 40 101.5t111 39.5q25 0 45.5 -6.5t37.5 -17.5t32.5 -25t29.5 -29q13 13 28 27t33.5 25.5t40 18.5t46.5 7t49.5 -8
t43.5 -25.5t30.5 -44t11.5 -63.5q0 -28 -11.5 -52.5t-31 -42.5t-45 -28t-54.5 -10zM184 256q15 0 29 6t26.5 15.5t23 20.5t19.5 20q-20 23 -43 40t-52 17q-26 0 -40.5 -17t-14.5 -40t11.5 -42.5t40.5 -19.5zM383 314q20 -23 40 -40.5t49 -17.5q23 0 37.5 18.5t14.5 41.5
q0 22 -10.5 41t-38.5 19q-26 0 -47.5 -18.5t-44.5 -43.5z" />
    <glyph glyph-name="integral" unicode="&#x222b;" horiz-adv-x="317" 
d="M274 649q-21 8 -48 8q-25 0 -35 -19.5t-5 -67.5l77 -589q6 -47 -4.5 -78.5t-32 -50.5t-51 -27.5t-61.5 -8.5q-18 0 -39.5 4t-32.5 9l6 86q21 -8 47 -8q30 0 44 17.5t9 60.5l-75 593q-6 48 2 80t26.5 52t46 28.5t59.5 8.5q19 0 39.5 -4t31.5 -8z" />
    <glyph glyph-name="approxequal" unicode="&#x2248;" 
d="M27 155q25 114 101 114q20 0 38.5 -5t43.5 -16q17 -8 30.5 -12.5t26.5 -4.5q14 0 24 9.5t16 32.5l76 -21q-11 -54 -33 -83t-60 -29q-23 0 -43.5 6t-37.5 14q-19 8 -35 14.5t-30 6.5q-18 0 -27.5 -13t-16.5 -39zM27 328q25 114 101 114q20 0 38.5 -5t43.5 -16
q17 -8 30.5 -12.5t26.5 -4.5q14 0 24 9.5t16 32.5l76 -21q-11 -54 -33 -83t-60 -29q-23 0 -43.5 6t-37.5 14q-19 8 -35 14.5t-30 6.5q-18 0 -27.5 -13t-16.5 -39z" />
    <glyph glyph-name="notequal" unicode="&#x2260;" 
d="M182 186l-44 -86h-72l45 86h-49v90h95l30 58h-125v90h171l41 80h69l-41 -80h50v-90h-96l-29 -58h125v-90h-170z" />
    <glyph glyph-name="lessequal" unicode="&#x2264;" 
d="M62 0v90h289v-90h-289zM62 201v129l290 101v-106l-195 -57l195 -50v-105z" />
    <glyph glyph-name="greaterequal" unicode="&#x2265;" 
d="M62 0v90h290v-90h-290zM352 343v-129l-290 -101v106l196 57l-196 50v105z" />
    <glyph glyph-name="lozenge" unicode="&#x25ca;" horiz-adv-x="500" 
d="M189 46l-138 324l138 324h121l138 -324l-138 -324h-121zM339 370l-89 223l-90 -223l90 -223z" />
    <glyph glyph-name="uniFB01" unicode="&#xfb01;" horiz-adv-x="404" 
d="M240 654q-8 2 -16 3t-15 1q-31 0 -40 -20.5t-9 -55.5v-59h208v-523h-103v435h-105v-435h-104v435h-48v88h48v68q0 48 10.5 78t28.5 47.5t42 24t50 6.5q15 0 29 -3t24 -6v-84zM265 734h103v-132h-103v132z" />
    <glyph glyph-name="uniFB02" unicode="&#xfb02;" horiz-adv-x="402" 
d="M8 523h48v68q0 48 11 78t29 47.5t41.5 24t49.5 6.5q14 0 29.5 -3t25.5 -7v-84q-8 2 -18.5 3.5t-18.5 1.5q-28 0 -36.5 -20t-8.5 -55v-60h70v-88h-70v-435h-104v435h-48v88zM368 0h-104v734h104v-734z" />
    </font>
</defs>
</svg>
